/* XPM */
static char * 0_xpm[] = {
"40 80 10 1",
" 	c None",
".	c #F4980E",
"+	c #F5980F",
"@	c #F4980F",
"#	c #F4970F",
"$	c #F4970E",
"%	c #F5970E",
"&	c #F5970F",
"*	c #F3970F",
"=	c #F3970E",
"                                        ",
"                                        ",
"                                        ",
"                                        ",
"                                        ",
"                                        ",
"                                        ",
"                                        ",
"                                        ",
"                                        ",
"                                        ",
"                                        ",
"                                        ",
"                                        ",
"                                        ",
"                                        ",
"                                        ",
"                                        ",
"                                        ",
"                                        ",
"        .+.@+++++++++++++++#.##         ",
"      #++++++++++++++++++++++++++$      ",
"     %++++++++++++++++++++++++++++#     ",
"    @++++++++++++++++++++++++++++++#    ",
"   #++++++++++++++++++++++++++++++++.   ",
"   ++++++++++++++++++++++++++++++++++   ",
"  &++++++++++++++++++++++++++++++++++$  ",
"  +++++++++++++++++++++++++++++++++++.  ",
"  +++++++++++++++++++++++++++++++++++$  ",
"  ++++++++++++++++++++++++++++++++++++  ",
"  ++++++++++#              $++++++++++  ",
"  ++++++++++#              $++++++++++  ",
"  ++++++++++#              $++++++++++  ",
"  ++++++++++#              $++++++++++  ",
"  ++++++++++#              $++++++++++  ",
"  ++++++++++#              $++++++++++  ",
"  ++++++++++#              $++++++++++  ",
"  ++++++++++#              $++++++++++  ",
"  ++++++++++#              $++++++++++  ",
"  ++++++++++#              $++++++++++  ",
"  ++++++++++#              $++++++++++  ",
"  ++++++++++#              $++++++++++  ",
"  ++++++++++#              $++++++++++  ",
"  ++++++++++#              $++++++++++  ",
"  ++++++++++#              $++++++++++  ",
"  ++++++++++#              $++++++++++  ",
"  ++++++++++++++++++++++++++++++++++++  ",
"  +++++++++++++++++++++++++++++++++++#  ",
"  $++++++++++++++++++++++++++++++++++*  ",
"  #++++++++++++++++++++++++++++++++++.  ",
"   ++++++++++++++++++++++++++++++++++   ",
"   @++++++++++++++++++++++++++++++++.   ",
"   #+++++++++++++++++++++++++++++++$    ",
"    $+++++++++++++++++++++++++++++$     ",
"     @+++++++++++++++++++++++++++#      ",
"       ###+++++++++++++++++++=*%        ",
"                                        ",
"                                        ",
"                                        ",
"                                        ",
"                                        ",
"                                        ",
"                                        ",
"                                        ",
"                                        ",
"                                        ",
"                                        ",
"                                        ",
"                                        ",
"                                        ",
"                                        ",
"                                        ",
"                                        ",
"                                        ",
"                                        ",
"                                        ",
"                                        ",
"                                        ",
"                                        ",
"                                        "};
