/* XPM */
static char * 1_xpm[] = {
"40 80 8 1",
" 	c None",
".	c #F4970F",
"+	c #F5980F",
"@	c #F5970F",
"#	c #F4980F",
"$	c #F4970E",
"%	c #F4980E",
"&	c #F5970E",
"                                        ",
"                                        ",
"                                        ",
"                                        ",
"                                        ",
"                                        ",
"                                        ",
"                                        ",
"                                        ",
"                                        ",
"                                        ",
"                                        ",
"                                        ",
"                                        ",
"                                        ",
"                                        ",
"                                        ",
"                                        ",
"                                        ",
"                                        ",
"                                        ",
"                                        ",
"                     .++++.             ",
"                    .+++++.             ",
"                  @#++++++.             ",
"                 .++++++++.             ",
"                $+++++++++.             ",
"               .++++++++++.             ",
"             $++++++++++++.             ",
"            .+++++++++++++.             ",
"           %++++++++++++++.             ",
"          $+++++++++++++++.             ",
"          $+++++++++++++++.             ",
"          $+++++++++++++++.             ",
"          $+++++++++++++++.             ",
"          $+++++++++++++++.             ",
"              &+++++++++++.             ",
"               +++++++++++.             ",
"               +++++++++++.             ",
"               +++++++++++.             ",
"               +++++++++++.             ",
"               +++++++++++.             ",
"               +++++++++++.             ",
"               +++++++++++.             ",
"               +++++++++++.             ",
"               +++++++++++.             ",
"               +++++++++++.             ",
"               +++++++++++.             ",
"               +++++++++++.             ",
"               +++++++++++.             ",
"               +++++++++++.             ",
"               +++++++++++.             ",
"               +++++++++++.             ",
"               +++++++++++.             ",
"               +++++++++++.             ",
"               +++++++++++.             ",
"               +++++++++++.             ",
"               +++++++++++.             ",
"               +++++++++++.             ",
"               +++++++++++.             ",
"               +++++++++++.             ",
"               +++++++++++.             ",
"               +++++++++++.             ",
"                                        ",
"                                        ",
"                                        ",
"                                        ",
"                                        ",
"                                        ",
"                                        ",
"                                        ",
"                                        ",
"                                        ",
"                                        ",
"                                        ",
"                                        ",
"                                        ",
"                                        ",
"                                        ",
"                                        "};
