/* XPM */
static char * 3_xpm[] = {
"40 80 12 1",
" 	c None",
".	c #F3970F",
"+	c #F5980F",
"@	c #F4970E",
"#	c #F4970F",
"$	c #F4980E",
"%	c #F4980F",
"&	c #F5970F",
"*	c #F5970E",
"=	c #F5980E",
"-	c #F4960F",
";	c #F3970E",
"                                        ",
"                                        ",
"                                        ",
"                                        ",
"                                        ",
"                                        ",
"                                        ",
"                                        ",
"                                        ",
"                                        ",
"                                        ",
"                                        ",
"                                        ",
"                                        ",
"                                        ",
"                                        ",
"                                        ",
"                                        ",
"                                        ",
"                                        ",
"  .+++++++++++++++++++++++@@#           ",
"  .+++++++++++++++++++++++++++$         ",
"  .+++++++++++++++++++++++++++++        ",
"  .+++++++++++++++++++++++++++++%       ",
"  .++++++++++++++++++++++++++++++@      ",
"  .++++++++++++++++++++++++++++++#      ",
"  .+++++++++++++++++++++++++++++++      ",
"  .+++++++++++++++++++++++++++++++      ",
"  .+++++++++++++++++++++++++++++++      ",
"  .+++++++++++++++++++++++++++++++      ",
"                       +++++++++++      ",
"                       +++++++++++      ",
"                       +++++++++++      ",
"                       ++++++++++#      ",
"                       +++++++++++      ",
"     @++++++++++++++++++++++++++%       ",
"     @++++++++++++++++++++++++++        ",
"     @++++++++++++++++++++++++++        ",
"     @++++++++++++++++++++++++++        ",
"     @++++++++++++++++++++++++++&       ",
"     @+++++++++++++++++++++++++++       ",
"     @+++++++++++++++++++++++++++*      ",
"     @+++++++++++++++++++++++++++%      ",
"                       +++++++++++      ",
"                       +++++++++++      ",
"                       +++++++++++      ",
"  ++++++++++++++++++++++++++++++++      ",
"  ++++++++++++++++++++++++++++++++      ",
"  ++++++++++++++++++++++++++++++++      ",
"  ++++++++++++++++++++++++++++++++      ",
"  ++++++++++++++++++++++++++++++++      ",
"  +++++++++++++++++++++++++++++++=      ",
"  +++++++++++++++++++++++++++++++       ",
"  ++++++++++++++++++++++++++++++$       ",
"  ++++++++++++++++++++++++++++#         ",
"  ++++++++++++++++++++++++#-#;          ",
"                                        ",
"                                        ",
"                                        ",
"                                        ",
"                                        ",
"                                        ",
"                                        ",
"                                        ",
"                                        ",
"                                        ",
"                                        ",
"                                        ",
"                                        ",
"                                        ",
"                                        ",
"                                        ",
"                                        ",
"                                        ",
"                                        ",
"                                        ",
"                                        ",
"                                        ",
"                                        ",
"                                        "};
