/* XPM */
static char * 4_xpm[] = {
"40 80 12 1",
" 	c None",
".	c #F4970F",
"+	c #F5980F",
"@	c #F5970E",
"#	c #F4970E",
"$	c #F3970F",
"%	c #F4980E",
"&	c #F5960F",
"*	c #F5980E",
"=	c #F4980F",
"-	c #F5970F",
";	c #F4960F",
"                                        ",
"                                        ",
"                                        ",
"                                        ",
"                                        ",
"                                        ",
"                                        ",
"                                        ",
"                                        ",
"                                        ",
"                                        ",
"                                        ",
"                                        ",
"                                        ",
"                                        ",
"                                        ",
"                                        ",
"                                        ",
"                                        ",
"                                        ",
"                                        ",
"                                        ",
"                        .+++++++++++.   ",
"                       .++++++++++++.   ",
"                     @++++++++++++++.   ",
"                    @+++++++++++++++.   ",
"                  #+++++++++++++++++.   ",
"                 .++++++++++++++++++.   ",
"                .+++++++++++++++++++.   ",
"              @+++++++++++++++++++++.   ",
"             .++++++++++++++++++++++.   ",
"           @++++++++++++++++++++++++.   ",
"          $+++++++++++++++++++++++++.   ",
"         .+++++++++++++%&+++++++++++.   ",
"       *++++++++++++++@  +++++++++++.   ",
"      .++++++++++++++=   +++++++++++.   ",
"    @++++++++++++++=     +++++++++++.   ",
"   $++++++++++++++@      +++++++++++.   ",
"  .++++++++++++++-       +++++++++++.   ",
"*+++++++++++++++.        +++++++++++.   ",
"+++++++++++++++#         +++++++++++.   ",
"+++++++++++++.           +++++++++++.   ",
"++++++++++++;            +++++++++++.   ",
"+++++++++++%             +++++++++++.   ",
"++++++++++#              +++++++++++.   ",
"++++++++++++++++++++++++++++++++++++++++",
"++++++++++++++++++++++++++++++++++++++++",
"++++++++++++++++++++++++++++++++++++++++",
"++++++++++++++++++++++++++++++++++++++++",
"++++++++++++++++++++++++++++++++++++++++",
"++++++++++++++++++++++++++++++++++++++++",
"++++++++++++++++++++++++++++++++++++++++",
"++++++++++++++++++++++++++++++++++++++++",
"++++++++++++++++++++++++++++++++++++++++",
"                         +++++++++++.   ",
"                         +++++++++++.   ",
"                         +++++++++++.   ",
"                         +++++++++++.   ",
"                         +++++++++++.   ",
"                         +++++++++++.   ",
"                         +++++++++++.   ",
"                         +++++++++++.   ",
"                         +++++++++++.   ",
"                                        ",
"                                        ",
"                                        ",
"                                        ",
"                                        ",
"                                        ",
"                                        ",
"                                        ",
"                                        ",
"                                        ",
"                                        ",
"                                        ",
"                                        ",
"                                        ",
"                                        ",
"                                        ",
"                                        "};
