/* XPM */
static char * 5_xpm[] = {
"40 80 8 1",
" 	c None",
".	c #F4970E",
"+	c #F5980F",
"@	c #F4970F",
"#	c #F4980F",
"$	c #F5960F",
"%	c #F4980E",
"&	c #F5980E",
"                                        ",
"                                        ",
"                                        ",
"                                        ",
"                                        ",
"                                        ",
"                                        ",
"                                        ",
"                                        ",
"                                        ",
"                                        ",
"                                        ",
"                                        ",
"                                        ",
"                                        ",
"                                        ",
"                                        ",
"                                        ",
"                                        ",
"                                        ",
"                                        ",
"                                        ",
"  .++++++++++++++++++++++++++++++++++   ",
"  .++++++++++++++++++++++++++++++++++   ",
"  .++++++++++++++++++++++++++++++++++   ",
"  .++++++++++++++++++++++++++++++++++   ",
"  .++++++++++++++++++++++++++++++++++   ",
"  .++++++++++++++++++++++++++++++++++   ",
"  .++++++++++++++++++++++++++++++++++   ",
"  .++++++++++++++++++++++++++++++++++   ",
"  .++++++++++++++++++++++++++++++++++   ",
"  .++++++++++++++++++++++++++++++++++   ",
"  .++++++++++++++++++++++++++++++++++   ",
"  .+++++++++++                          ",
"  .+++++++++++                          ",
"  .+++++++++++                          ",
"  .+++++++++++                          ",
"  .+++++++++++                          ",
"  .+++++++++++                          ",
"  .++++++++++++++++++++++++++++++@      ",
"  .++++++++++++++++++++++++++++++++@    ",
"  .+++++++++++++++++++++++++++++++++.   ",
"  .++++++++++++++++++++++++++++++++++.  ",
"  .+++++++++++++++++++++++++++++++++++. ",
"  .+++++++++++++++++++++++++++++++++++# ",
"  .++++++++++++++++++++++++++++++++++++ ",
"  .++++++++++++++++++++++++++++++++++++$",
"  .++++++++++++++++++++++++++++++++++++%",
"                           ++++++++++++%",
"                           ++++++++++++%",
"                           ++++++++++++%",
"                           ++++++++++++%",
"  .++++++++++++++++++++++++++++++++++++%",
"  .++++++++++++++++++++++++++++++++++++%",
"  .++++++++++++++++++++++++++++++++++++&",
"  .++++++++++++++++++++++++++++++++++++ ",
"  .++++++++++++++++++++++++++++++++++++ ",
"  .+++++++++++++++++++++++++++++++++++% ",
"  .+++++++++++++++++++++++++++++++++++  ",
"  .++++++++++++++++++++++++++++++++++@  ",
"  .+++++++++++++++++++++++++++++++++@   ",
"  .++++++++++++++++++++++++++++++++%    ",
"  .++++++++++++++++++++++++++++#.%      ",
"                                        ",
"                                        ",
"                                        ",
"                                        ",
"                                        ",
"                                        ",
"                                        ",
"                                        ",
"                                        ",
"                                        ",
"                                        ",
"                                        ",
"                                        ",
"                                        ",
"                                        ",
"                                        ",
"                                        "};
