/* XPM */
static char * 6_xpm[] = {
"40 80 11 1",
" 	c None",
".	c #F4970F",
"+	c #F4980E",
"@	c #F5980F",
"#	c #F4980F",
"$	c #F5970E",
"%	c #F4960F",
"&	c #F4970E",
"*	c #F3970E",
"=	c #F5970F",
"-	c #F3970F",
"                                        ",
"                                        ",
"                                        ",
"                                        ",
"                                        ",
"                                        ",
"                                        ",
"                                        ",
"                                        ",
"                                        ",
"                                        ",
"                                        ",
"                                        ",
"                                        ",
"                                        ",
"                                        ",
"                                        ",
"                                        ",
"                                        ",
"                                        ",
"                                        ",
"                                        ",
"        .++@@@@@@@@@@@@@@@@@@@@@@@@@@@@ ",
"     ..@@@@@@@@@@@@@@@@@@@@@@@@@@@@@@@@ ",
"    #@@@@@@@@@@@@@@@@@@@@@@@@@@@@@@@@@@ ",
"   $@@@@@@@@@@@@@@@@@@@@@@@@@@@@@@@@@@@ ",
"  .@@@@@@@@@@@@@@@@@@@@@@@@@@@@@@@@@@@@ ",
" +@@@@@@@@@@@@@@@@@@@@@@@@@@@@@@@@@@@@@ ",
" @@@@@@@@@@@@@@@@@@@@@@@@@@@@@@@@@@@@@@ ",
" @@@@@@@@@@@@@@@@@@@@@@@@@@@@@@@@@@@@@@ ",
".@@@@@@@@@@@@@@@@@@@@@@@@@@@@@@@@@@@@@@ ",
"@@@@@@@@@@@@@@@@@@@@@@@@@@@@@@@@@@@@@@@ ",
"%@@@@@@@@@@@@@@@@@@@@@@@@@@@@@@@@@@@@@@ ",
"&@@@@@@@@@@@                            ",
"&@@@@@@@@@@@                            ",
"&@@@@@@@@@@@                            ",
"&@@@@@@@@@@@                            ",
"&@@@@@@@@@@@                            ",
"&@@@@@@@@@@@@@@@@@@@@@@@@@@@@@@@&&      ",
"&@@@@@@@@@@@@@@@@@@@@@@@@@@@@@@@@@@@.   ",
"&@@@@@@@@@@@@@@@@@@@@@@@@@@@@@@@@@@@@@$ ",
"&@@@@@@@@@@@@@@@@@@@@@@@@@@@@@@@@@@@@@@ ",
"&@@@@@@@@@@@@@@@@@@@@@@@@@@@@@@@@@@@@@@.",
"&@@@@@@@@@@@@@@@@@@@@@@@@@@@@@@@@@@@@@@@",
"&@@@@@@@@@@@@@@@@@@@@@@@@@@@@@@@@@@@@@@@",
"&@@@@@@@@@@@@@@@@@@@@@@@@@@@@@@@@@@@@@@@",
"&@@@@@@@@@@@@@@@@@@@@@@@@@@@@@@@@@@@@@@@",
"&@@@@@@@@@@@                 @@@@@@@@@@@",
"&@@@@@@@@@@@                 @@@@@@@@@@@",
"&@@@@@@@@@@@                 @@@@@@@@@@@",
"&@@@@@@@@@@@                 @@@@@@@@@@@",
"&@@@@@@@@@@@                 @@@@@@@@@@@",
"*@@@@@@@@@@@@@@@@@@@@@@@@@@@@@@@@@@@@@@@",
"&@@@@@@@@@@@@@@@@@@@@@@@@@@@@@@@@@@@@@@@",
".@@@@@@@@@@@@@@@@@@@@@@@@@@@@@@@@@@@@@@@",
"@@@@@@@@@@@@@@@@@@@@@@@@@@@@@@@@@@@@@@@@",
" .@@@@@@@@@@@@@@@@@@@@@@@@@@@@@@@@@@@@@@",
" .@@@@@@@@@@@@@@@@@@@@@@@@@@@@@@@@@@@@@@",
"  =@@@@@@@@@@@@@@@@@@@@@@@@@@@@@@@@@@@@#",
"   .@@@@@@@@@@@@@@@@@@@@@@@@@@@@@@@@@@- ",
"    &@@@@@@@@@@@@@@@@@@@@@@@@@@@@@@@@$  ",
"     =@@@@@@@@@@@@@@@@@@@@@@@@@@@@@@#   ",
"       #&@@@@@@@@@@@@@@@@@@@@@@@@$.     ",
"                                        ",
"                                        ",
"                                        ",
"                                        ",
"                                        ",
"                                        ",
"                                        ",
"                                        ",
"                                        ",
"                                        ",
"                                        ",
"                                        ",
"                                        ",
"                                        ",
"                                        ",
"                                        ",
"                                        "};
