/* XPM */
static char * 7_xpm[] = {
"40 80 11 1",
" 	c None",
".	c #F4970E",
"+	c #F5980F",
"@	c #F5970E",
"#	c #F4980E",
"$	c #F4970F",
"%	c #F3970E",
"&	c #F4980F",
"*	c #F3970F",
"=	c #F5970F",
"-	c #F5980E",
"                                        ",
"                                        ",
"                                        ",
"                                        ",
"                                        ",
"                                        ",
"                                        ",
"                                        ",
"                                        ",
"                                        ",
"                                        ",
"                                        ",
"                                        ",
"                                        ",
"                                        ",
"                                        ",
"                                        ",
"                                        ",
"                                        ",
"                                        ",
"                                        ",
"                                        ",
"  .++++++++++++++++++++++++++++++++++++ ",
"  .++++++++++++++++++++++++++++++++++++ ",
"  .++++++++++++++++++++++++++++++++++++ ",
"  .++++++++++++++++++++++++++++++++++++ ",
"  .++++++++++++++++++++++++++++++++++++ ",
"  .++++++++++++++++++++++++++++++++++++ ",
"  .++++++++++++++++++++++++++++++++++++ ",
"  .++++++++++++++++++++++++++++++++++++ ",
"  .++++++++++++++++++++++++++++++++++++ ",
"  .++++++++++++++++++++++++++++++++++++ ",
"  .++++++++++++++++++++++++++++++++++++ ",
"                          @+++++++++++# ",
"                          ++++++++++++$ ",
"                         %+++++++++++$  ",
"                         ++++++++++++.  ",
"                        ++++++++++++&   ",
"                        ++++++++++++@   ",
"                       .+++++++++++&    ",
"                       ++++++++++++$    ",
"                      *+++++++++++$     ",
"                      ++++++++++++.     ",
"                     .++++++++++++      ",
"                     ++++++++++++$      ",
"                    $++++++++++++       ",
"                    ++++++++++++@       ",
"                   @++++++++++++        ",
"                  =++++++++++++$        ",
"                  .++++++++++++         ",
"                 @++++++++++++.         ",
"                 #++++++++++++          ",
"                $++++++++++++-          ",
"                $++++++++++++           ",
"               -++++++++++++*           ",
"               $++++++++++++            ",
"              &++++++++++++.            ",
"              $++++++++++++             ",
"             &++++++++++++.             ",
"             +++++++++++++              ",
"            @++++++++++++$              ",
"            +++++++++++++               ",
"           $++++++++++++$               ",
"                                        ",
"                                        ",
"                                        ",
"                                        ",
"                                        ",
"                                        ",
"                                        ",
"                                        ",
"                                        ",
"                                        ",
"                                        ",
"                                        ",
"                                        ",
"                                        ",
"                                        ",
"                                        ",
"                                        "};
