/* XPM */
static char * 8_xpm[] = {
"40 80 11 1",
" 	c None",
".	c #F4970E",
"+	c #F4970F",
"@	c #F5980F",
"#	c #F4980F",
"$	c #F5970E",
"%	c #F5980E",
"&	c #F5970F",
"*	c #F4980E",
"=	c #F3980E",
"-	c #F4960F",
"                                        ",
"                                        ",
"                                        ",
"                                        ",
"                                        ",
"                                        ",
"                                        ",
"                                        ",
"                                        ",
"                                        ",
"                                        ",
"                                        ",
"                                        ",
"                                        ",
"                                        ",
"                                        ",
"                                        ",
"                                        ",
"                                        ",
"                                        ",
"                                        ",
"                                        ",
"       .+.@@@@@@@@@@@@@@@@@@@@#.+       ",
"     #@@@@@@@@@@@@@@@@@@@@@@@@@@@@$     ",
"   @@@@@@@@@@@@@@@@@@@@@@@@@@@@@@@@@%   ",
"   @@@@@@@@@@@@@@@@@@@@@@@@@@@@@@@@@@&  ",
"  .@@@@@@@@@@@@@@@@@@@@@@@@@@@@@@@@@@@  ",
" &@@@@@@@@@@@@@@@@@@@@@@@@@@@@@@@@@@@@* ",
" +@@@@@@@@@@@@@@@@@@@@@@@@@@@@@@@@@@@@@ ",
" @@@@@@@@@@@@@@@@@@@@@@@@@@@@@@@@@@@@@@$",
" .@@@@@@@@@@@@@@@@@@@@@@@@@@@@@@@@@@@@@$",
" $@@@@@@@@@@@@@@@@@@@@@@@@@@@@@@@@@@@@@.",
" #@@@@@@@@@@@@@@@@@@@@@@@@@@@@@@@@@@@@@.",
" @@@@@@@@@@@@              .@@@@@@@@@@@.",
" +@@@@@@@@@@@              .@@@@@@@@@@@.",
" .@@@@@@@@@@@              .@@@@@@@@@@@&",
" +@@@@@@@@@@@              .@@@@@@@@@@@ ",
" %@@@@@@@@@@@              .@@@@@@@@@@@ ",
"  +@@@@@@@@@@@@@@@@@@@@@@@@@@@@@@@@@@@  ",
"  &@@@@@@@@@@@@@@@@@@@@@@@@@@@@@@@@@@&  ",
"   =@@@@@@@@@@@@@@@@@@@@@@@@@@@@@@@@@   ",
"     +@@@@@@@@@@@@@@@@@@@@@@@@@@@@#     ",
"     .@@@@@@@@@@@@@@@@@@@@@@@@@@@@@+    ",
"   @@@@@@@@@@@@@@@@@@@@@@@@@@@@@@@@@$   ",
"   @@@@@@@@@@@@@@@@@@@@@@@@@@@@@@@@@@@  ",
"  +@@@@@@@@@@@@@@@@@@@@@@@@@@@@@@@@@@@+ ",
" @@@@@@@@@@@@              .@@@@@@@@@@@ ",
" +@@@@@@@@@@@              .@@@@@@@@@@@%",
" +@@@@@@@@@@@              .@@@@@@@@@@@#",
" @@@@@@@@@@@@              .@@@@@@@@@@@@",
" +@@@@@@@@@@@              .@@@@@@@@@@@@",
" $@@@@@@@@@@@              .@@@@@@@@@@@@",
" .@@@@@@@@@@@@@@@@@@@@@@@@@@@@@@@@@@@@@@",
" +@@@@@@@@@@@@@@@@@@@@@@@@@@@@@@@@@@@@@@",
" .@@@@@@@@@@@@@@@@@@@@@@@@@@@@@@@@@@@@@*",
" +@@@@@@@@@@@@@@@@@@@@@@@@@@@@@@@@@@@@@@",
"  @@@@@@@@@@@@@@@@@@@@@@@@@@@@@@@@@@@@@ ",
"  @@@@@@@@@@@@@@@@@@@@@@@@@@@@@@@@@@@@- ",
"  +@@@@@@@@@@@@@@@@@@@@@@@@@@@@@@@@@@@  ",
"   +@@@@@@@@@@@@@@@@@@@@@@@@@@@@@@@@@   ",
"    .@@@@@@@@@@@@@@@@@@@@@@@@@@@@@@+    ",
"     .@@@@@@@@@@@@@@@@@@@@@@@@@@@@.     ",
"       @#..@@@@@@@@@@@@@@@@@@@@##       ",
"                                        ",
"                                        ",
"                                        ",
"                                        ",
"                                        ",
"                                        ",
"                                        ",
"                                        ",
"                                        ",
"                                        ",
"                                        ",
"                                        ",
"                                        ",
"                                        ",
"                                        ",
"                                        ",
"                                        "};
