/* XPM */
static char * 9_xpm[] = {
"40 80 12 1",
" 	c None",
".	c #F4970F",
"+	c #F5980F",
"@	c #F4970E",
"#	c #F5970E",
"$	c #F4980F",
"%	c #F4980E",
"&	c #F3980F",
"*	c #F3980E",
"=	c #F5970F",
"-	c #F3970E",
";	c #F4960F",
"                                        ",
"                                        ",
"                                        ",
"                                        ",
"                                        ",
"                                        ",
"                                        ",
"                                        ",
"                                        ",
"                                        ",
"                                        ",
"                                        ",
"                                        ",
"                                        ",
"                                        ",
"                                        ",
"                                        ",
"                                        ",
"                                        ",
"                                        ",
"                                        ",
"                                        ",
"     .+++++++++++++++++++++++++@#       ",
"   $++++++++++++++++++++++++++++++%     ",
"  .++++++++++++++++++++++++++++++++$    ",
" .++++++++++++++++++++++++++++++++++#   ",
"#++++++++++++++++++++++++++++++++++++@  ",
"++++++++++++++++++++++++++++++++++++++& ",
"+++++++++++++++++++++++++++++++++++++++ ",
"+++++++++++++++++++++++++++++++++++++++@",
"+++++++++++++++++++++++++++++++++++++++.",
"+++++++++++++++++++++++++++++++++++++++.",
"++++++++++++++++++++++++++++++++++++++++",
"+++++++++++@              ++++++++++++++",
"+++++++++++@              ++++++++++++++",
"+++++++++++@              ++++++++++++++",
"+++++++++++@              ++++++++++++++",
"+++++++++++@              ++++++++++++++",
"++++++++++++++++++++++++++++++++++++++++",
"++++++++++++++++++++++++++++++++++++++++",
"++++++++++++++++++++++++++++++++++++++++",
"%+++++++++++++++++++++++++++++++++++++++",
" +++++++++++++++++++++++++++++++++++++++",
" *++++++++++++++++++++++++++++++++++++++",
"   @++++++++++++++++++++++++++++++++++++",
"     %@@++++++++++++++++++++++++++++++++",
"                            ++++++++++++",
"                            ++++++++++++",
"                            ++++++++++++",
"                            ++++++++++++",
"                            ++++++++++++",
"                            ++++++++++++",
" +++++++++++++++++++++++++++++++++++++++",
" ++++++++++++++++++++++++++++++++++++++$",
" ++++++++++++++++++++++++++++++++++++++@",
" ++++++++++++++++++++++++++++++++++++++=",
" ++++++++++++++++++++++++++++++++++++++ ",
" +++++++++++++++++++++++++++++++++++++$ ",
" ++++++++++++++++++++++++++++++++++++.  ",
" +++++++++++++++++++++++++++++++++++$   ",
" ++++++++++++++++++++++++++++++++++-    ",
" +++++++++++++++++++++++++++++++++.     ",
" ++++++++++++++++++++++++++++$;%.       ",
"                                        ",
"                                        ",
"                                        ",
"                                        ",
"                                        ",
"                                        ",
"                                        ",
"                                        ",
"                                        ",
"                                        ",
"                                        ",
"                                        ",
"                                        ",
"                                        ",
"                                        ",
"                                        ",
"                                        "};
