/* XPM */
static char * cheese_80_bright_bkg_xpm[] = {
"80 80 316 2",
"  	c #110F0F",
". 	c #0F0D0D",
"+ 	c #0D0B0B",
"@ 	c #0B0909",
"# 	c #070606",
"$ 	c #050404",
"% 	c #0E0C0C",
"& 	c #141212",
"* 	c #161313",
"= 	c #171414",
"- 	c #0A0808",
"; 	c #080606",
"> 	c #060404",
", 	c #040303",
"' 	c #060505",
") 	c #100E0E",
"! 	c #0C0A0A",
"~ 	c #0E0B0B",
"{ 	c #090707",
"] 	c #0A0707",
"^ 	c #080707",
"/ 	c #120F0F",
"( 	c #141111",
"_ 	c #0F0C0C",
": 	c #070505",
"< 	c #161414",
"[ 	c #050303",
"} 	c #151212",
"| 	c #0D0A0A",
"1 	c #0B0808",
"2 	c #110E0E",
"3 	c #100D0D",
"4 	c #131010",
"5 	c #090808",
"6 	c #131111",
"7 	c #0C0909",
"8 	c #121010",
"9 	c #030202",
"0 	c #151313",
"a 	c #020202",
"b 	c #020101",
"c 	c #010101",
"d 	c #030303",
"e 	c #040404",
"f 	c #0D0C0C",
"g 	c #050505",
"h 	c #010000",
"i 	c #090606",
"j 	c #040202",
"k 	c #0A0909",
"l 	c #151414",
"m 	c #0B0A0A",
"n 	c #100F0F",
"o 	c #0C0B0B",
"p 	c #3B2E0A",
"q 	c #866917",
"r 	c #C79B22",
"s 	c #AD871E",
"t 	c #4A3A0D",
"u 	c #130F03",
"v 	c #795F15",
"w 	c #DCAB26",
"x 	c #FAC32B",
"y 	c #E0AE26",
"z 	c #836616",
"A 	c #241C06",
"B 	c #816516",
"C 	c #EEBA29",
"D 	c #F9C22B",
"E 	c #BE9421",
"F 	c #5F4A10",
"G 	c #48390C",
"H 	c #DEAD26",
"I 	c #F5B12D",
"J 	c #F8BC2C",
"K 	c #9B791B",
"L 	c #3D2F0B",
"M 	c #8B6D18",
"N 	c #F8BE2C",
"O 	c #EC9430",
"P 	c #EA8832",
"Q 	c #EC9231",
"R 	c #F9C12B",
"S 	c #F8B62D",
"T 	c #FAC02B",
"U 	c #D8A825",
"V 	c #7A5F15",
"W 	c #1E1705",
"X 	c #B48D1F",
"Y 	c #F29032",
"Z 	c #F29132",
"` 	c #F39831",
" .	c #F9C02B",
"..	c #F8C12B",
"+.	c #B89020",
"@.	c #5A460F",
"#.	c #C09621",
"$.	c #F9BA2C",
"%.	c #F8B72D",
"&.	c #FAC12B",
"*.	c #ECB829",
"=.	c #98771A",
"-.	c #3A2D0A",
";.	c #B58D1F",
">.	c #F0A52E",
",.	c #E98C31",
"'.	c #E47F32",
").	c #E37C33",
"!.	c #E68432",
"~.	c #ED992F",
"{.	c #D6A725",
"].	c #795E15",
"^.	c #1D1705",
"/.	c #8E6F18",
"(.	c #F7B82C",
"_.	c #E68332",
":.	c #E27733",
"<.	c #E47B33",
"[.	c #E67D33",
"}.	c #E77E33",
"|.	c #E57C33",
"1.	c #E57F32",
"2.	c #F7BA2C",
"3.	c #B78F20",
"4.	c #59460F",
"5.	c #4D3C0D",
"6.	c #FAC22B",
"7.	c #E88133",
"8.	c #EE8B32",
"9.	c #F08E32",
"0.	c #F09F2F",
"a.	c #E2B027",
"b.	c #F8BB2C",
"c.	c #F6B52C",
"d.	c #ED8932",
"e.	c #F6A82F",
"f.	c #F6B82C",
"g.	c #EF9E2F",
"h.	c #ED9830",
"i.	c #F0A32E",
"j.	c #8A6C18",
"k.	c #F09D2F",
"l.	c #EC8832",
"m.	c #F1A12F",
"n.	c #F9BE2C",
"o.	c #F29232",
"p.	c #F39532",
"q.	c #F9BD2C",
"r.	c #ED8A32",
"s.	c #F29631",
"t.	c #F8C22B",
"u.	c #B99020",
"v.	c #5B4710",
"w.	c #1A1404",
"x.	c #F2BD2A",
"y.	c #F7B22D",
"z.	c #F5A62F",
"A.	c #F6AC2E",
"B.	c #F9BF2B",
"C.	c #F7B12D",
"D.	c #F29332",
"E.	c #F49B31",
"F.	c #F9BB2C",
"G.	c #F7B12E",
"H.	c #F8B52D",
"I.	c #F9C22A",
"J.	c #F6BE29",
"K.	c #F3BB28",
"L.	c #F0B727",
"M.	c #46350B",
"N.	c #806416",
"O.	c #F7AD2E",
"P.	c #F5A52F",
"Q.	c #F5A42F",
"R.	c #F6AA2F",
"S.	c #F8C12A",
"T.	c #F0B827",
"U.	c #EFB626",
"V.	c #5C460F",
"W.	c #997418",
"X.	c #F7BF2A",
"Y.	c #F4BC28",
"Z.	c #F2B927",
"`.	c #F0B726",
" +	c #715612",
".+	c #886716",
"++	c #F2BA27",
"@+	c #F5BD29",
"#+	c #F8C02A",
"$+	c #F5BD28",
"%+	c #F3BA28",
"&+	c #F1B827",
"*+	c #866615",
"=+	c #775B13",
"-+	c #F5BE29",
";+	c #9C7619",
">+	c #664D10",
",+	c #EFB526",
"'+	c #EAA02B",
")+	c #E8922E",
"!+	c #EC9D2C",
"~+	c #EFB327",
"{+	c #B1871C",
"]+	c #54400D",
"^+	c #EDAE28",
"/+	c #E58331",
"(+	c #E98233",
"_+	c #F18F32",
":+	c #F29431",
"<+	c #F0AE29",
"[+	c #C69720",
"}+	c #0F0E0E",
"|+	c #41310A",
"1+	c #EEB027",
"2+	c #E47E31",
"3+	c #EC8732",
"4+	c #F29531",
"5+	c #EFB427",
"6+	c #DCA723",
"7+	c #2D2207",
"8+	c #E58830",
"9+	c #E98333",
"0+	c #F0A42C",
"a+	c #EDB526",
"b+	c #191304",
"c+	c #ECA02B",
"d+	c #F09630",
"e+	c #EFB227",
"f+	c #ECA729",
"g+	c #E47A33",
"h+	c #F19032",
"i+	c #181204",
"j+	c #EEB526",
"k+	c #F0A32C",
"l+	c #E9972C",
"m+	c #EFB028",
"n+	c #060606",
"o+	c #DCA823",
"p+	c #EE9330",
"q+	c #F0A92A",
"r+	c #E8942D",
"s+	c #EA8532",
"t+	c #F0AB2A",
"u+	c #43330B",
"v+	c #C5961F",
"w+	c #EFB128",
"x+	c #EA9C2B",
"y+	c #EA8333",
"z+	c #F0AA2A",
"A+	c #58430E",
"B+	c #AC831B",
"C+	c #EDAB28",
"D+	c #E67E33",
"E+	c #6D5311",
"F+	c #916F17",
"G+	c #E58430",
"H+	c #F19A2F",
"I+	c #836415",
"J+	c #755913",
"K+	c #EBA12A",
"L+	c #987418",
"M+	c #55400D",
"N+	c #E9942D",
"O+	c #F1A02D",
"P+	c #AE841C",
"Q+	c #302408",
"R+	c #F0AC29",
"S+	c #E4AE24",
"T+	c #372A09",
"U+	c #131212",
"V+	c #EAB225",
"W+	c #DFAA24",
"X+	c #9B7619",
"Y+	c #4F3C0D",
"Z+	c #9F7919",
"`+	c #EEB626",
" @	c #EEB127",
".@	c #EEA22C",
"+@	c #F0A82B",
"@@	c #E9B125",
"#@	c #B68B1D",
"$@	c #795C13",
"%@	c #382B09",
"&@	c #161103",
"*@	c #856515",
"=@	c #B78B1D",
"-@	c #E3AD24",
";@	c #E88830",
">@	c #F1A22C",
",@	c #EDB426",
"'@	c #CB9B20",
")@	c #9D7819",
"!@	c #6C5311",
"~@	c #392B09",
"{@	c #211905",
"]@	c #49380C",
"^@	c #8E6D17",
"/@	c #C79720",
"(@	c #DEA923",
"_@	c #ECA929",
":@	c #F19B2F",
"<@	c #C99920",
"[@	c #B0861C",
"}@	c #947118",
"|@	c #533F0D",
"1@	c #2E2307",
"2@	c #170F04",
"3@	c #271609",
"4@	c #2F1C0A",
"5@	c #35200B",
"6@	c #39250B",
"7@	c #382A09",
"8@	c #342708",
"9@	c #2C2107",
"0@	c #211A05",
"a@	c #140F03",
"  . + @ # $ $ # % & * * = = = = & . - ; > , , , $ ' ' $ , ' - + . ) ! - ~ % - { @ - { ] { @ ^ # $ $ ! / ( ( _ { $ : : ' : ' ; / = = = = * = = < * * = = = = = < ",
"{ # ' ' ' [ # % ( = = * * * * } / | 1 % _ # $ , { % . ! ' { . / 2 _ @ - . 2 ) 3 / 4 / 3 - , # | 5 $ : { @ @ ; $ , ' > , , , ; 4 = = * * } } * * * = = = = = = = ",
"$ $ $ : ' $ ! 4 * = * } 6 / . ~ 7 ^ - 8 } _ ^ $ ! 4 } 4 ! { + ! { 7 % 3 ( = = = = = = ( + $ @ 2 % # $ [ , , $ [ , $ $ , , 9 > / * 0 & /   4 } * = = = = = = = = ",
"7 - ^ # $ # 2 * = = } ( 4 _ @ ; : : 7 ( * ( ~ # + ( = * ) ^ ' $ : 3 } * < = = < * = = * 3 # + 6 / 7 ' , , $ ; ^ > , 9 a b c 9 @ 3 ~ @ @ ! . 4 } = = = = = = = = ",
"6 8 ) ! > ; / * < = * * * (   | # $ - ( = } + { 2 * = = 8 - $ : _ } = = = = * < } } = * / { ! 6 } . ; , $ @ ) . { , b c c c c 9 , , d $ ; ! ) 6 * * = = = = = = ",
"= * * / { ; 2 * = = * * = = = ( @ $ ^ 4 * } % 1 4 * = = } + > { 8 * = = = * } < * } * = 8 - ^ 3 &   ; $ ;   } 6 { a c b 9 9 9 b c b 9 , : { ! 3 6 } * * * = = * ",
"= = = * 3 ^ % ( = = 0 * = = = ( ! , :   = * 3 7 / * = = = 3 ' - 8 * * = = = = = * * 0 } ) > e ]   / - $ - / 4 | , c a , , , , 9 c b , # ^ # ^ 1 + 3 / 8   / 4 / ",
"= = = = 4 @ 1 2 * = * * = * } 8 { , $ - _ ) + - 3 ( } * = ) : + ( * * * = = = = = 0 & 2 { # { ; { ~ ; , $ # ' a c b , , ' # $ , 9 $ !   . @ - { ' ; { { { { { ^ ",
"= = * * } 4 + ! / * * * * } 2 { , $ [ , , $ $ , # 7 3 4 6 % ; . } * = } } } * } (   ! - ~ ) . @ , 9 9 b b b c c c b , $ ; { $ , > f * = ( / / ~ : , , , : { { : ",
"= * } 6 6 } 2 ; ~ ( 6 8 . | - $ ; % _ _ . ! : , $ ' { - { ' , { ! + + | ! ! | ~ % + @ + 2 ) 7 ; 9 c c c b c c c c b [ $ $ [ , ' : . = * & ( } } % ' $ [ @ 2 / % ",
"= * 8 3 _ 3 | ' ' ; ; ^ ' $ $ # 3 } * ( ) @ 1 - ; ^ - ' b b c b d , , , , : - + ) 3 | 1 @ ; , 9 a b a , , , , a c b ; 7 # [ , [ g ~ ( * 0 } * = ( | # $ | ( * ( ",
"} ( 3 ! { : $ 9 a b b d , , ; % ( * 0 ) ; $ %   1 > : $ b h c a i ~ | ^ $ 7   4   + ; ; - ; $ $ , , # + + 7 { [ c b : - : d a a $ ! / = * & * * } 3 ^ > ~ ( < * ",
"( ) + - ' , 9 b b a , e , j ; ! 3 2 . - > , ! 3 { $ $ $ [ a c b ; 2 } 2 - 7 . | - - @ @ @ ^ - - $ : . ( ( 8 ) 5 a b , $ 9 b c c d # _ } * } * = * % : ' % 4 * = ",
"2 + - { ' ' $ , ' # : g , # 1 # ' # > ' { ' ' # $ : - ! | 5 , a , 7 } } % ' ' , ; 3 ) ! ^ ' - { ' + ( * * * * 2 > 9 d , , 9 b c b , ; + _ / 4 4 3 ^ , [ @ / & * ",
"% 1 - ! k { - ~ ) ) + ^ $ @ 2 - $ $ ' ! 3 { ' $ { % / ( ( ) ^ ' # # +   % ' $ ^ % 4 2 { ' # ! - {   * = * } = * + , 9 d ' ^ $ , 9 9 d , $ - ! @ : a b 9 ^ . 4 } ",
"@ { _ 8 | - 3 } * * } % > @ 4 + > > { _ ) { ' - 2 } < = 0 / - 7 2 + ; - @ ' [ 1 _ + - > $ ; - ^ 1 2 * } * * * 0 2 ' 9 9 - 2 | 5 > 9 b a 9 j , 9 a b b a ' ! ) 6 ",
"; - 4 < _ { 2 * = = = ( ! {   % ' $ : @ - ' , 1 ( = = = l * % | ( / { $ > , a ' : ' $ $ ' ' > > | ( * < = * 0 = } + 9 a k 6 7 : , b c b c b a c c b 9 9 # + _   ",
"% 4 * 0 _ { . ( * = = 0 3 ; ! @ > , , $ , , $ m ( = * = < } ~ ~ & } . ; , 9 b $ { @ ^ { 3 _ 1 : ~ & = * = = * * = 8 ' c , { $ b c c d : $ b c c c d $ > - _ 3 _ ",
"4 = } 2 @ ^ @ ) } = = = ( _ ^ > , $ [ , $ , $ - / * * = = & + - / * ) { ' $ [ ~ ( ( _ | ( ( 3 { % 0 = * * * } * * . , c 9 , d a a d , - - $ c c a , 1 + ^ - ~ ! ",
"} * 8 @ : ' ' - 2 & } (   7 $ a [ ^ 5 - - # $ $ ! 4 * = * n ; ' _ / ! : - { { / = = / % 4 } 3 { . * < * * * 0 = } ! , d $ ' > , # ^ e 9 9 , 9 d , , @ . : $ : ' ",
"4 / ! : $ ' ' $ ; ! ! @ ^ [ d 9 : 7 % / 6 ) @ > # ! / 4 3 - { ; { @ # # ] : ; 2 * = 4 % / & % ^ 3 * * * = * * * 3 { ' : % ) { $ @ + ^ , a 9 , [ $ , : - $ $ ' # ",
"~ 7 > $ ' - @ ; [ , , , $ > ' $ [ $ { ) & (   ! ; : 7 ! [ : + @ , a a 9 9 , : % } = 4 ~ ~ . - ' + ( * = = * }   : , ^ o 4   ; > + / ~ , a b a : @ > $ $ $ # - + ",
"' > > # % 4 4 _ ; , ' : ; k ^ : - | ~ % . . 3 _ 7 ' , , b p q r s t c c 9 , ' @ / } 8 @ # ^ - ' ^ 2 } = * ( / ! d , ! 8 8 | : ' - 2 4 ; 9 c a # o # ' > ' ] 3 ( ",
", , ; + ( = = } _ ' $ # @ | - @ 4 * 0 6 / % - ' ' $ u v w x x x x x y z A : $ , # _ + : $ # + @ ; ! 4 & 6 2 ~ # , $ 3 / | ; $ $ ' o / @ , 9 c a > $ $ : ' -   ( ",
"a , ! 4 * = = = / # , ' ] - ~ / * = * * < & 3 ' , B C x x x x x x x x x D E F $ 9 , $ $ $ : 3 / - ; o ! 1 | _ { ' # % @ ' $ $ $ $ # @ ; , 9 c b 9 , [ ; | % 2 / ",
"b $ 2 * = = * = 6 { $ ' ; i   } * = * * = } / G H x x x x x x I J x x x x x x C K L b 9 9 , 7 2 # 9 , , [ { - : ' ' ; ' ' { @ ! - > , , , d a 9 9 9 d # 2 ( / % ",
"9 : 4 = 0 = = = ( @ ' $ > { ( = * * * * * * M D x x N O P Q R S T x x x x x x x x x U V W a , $ b c c c c b a a , [ $ { + 2 8 4 3 { $ , , d a 9 9 b c a g @ - : ",
"c , ) = * = * * 6 @ # $ d : 2 } * * * * * X x x x x I Y Z `  .x x x x x x x x x x x x x ..+.@.9 > - 1 : , 9 b b 9 , $ ; % / 8 2 ~ : $ , , $ , a a 9 9 9 9 9 j , ",
"c d @ ( < 0 * = 4 - : , a 9 { 2 * * 0 * #.x x x x x x $.%.&.x x x x x x x x x x x x x x x x x *.=.-.} 2 7 ' 9 b 9 $ ' $ : { { ; ' [ $ , $ @ ^ d : ! 1 > $ , , , ",
"b , - / = } * = / : , 9 b c 9 ] 4 } } ;.x x x x x x x x x x x x x x x R >.,.'.).!.~.J x x x x x x x {.].^.$ 9 b , @ % { , , > $ ' ^ ; > ' | { ' % ( / + ; $ $ , ",
"b , - ) } = = } | , 9 b c c c 9 ^ + /.x x x x x x x x x x x x x x x (._.:.:.<.[.}.|.1.2.x x x x x x x x ..3.4.a - 6 & 2 ^ , : : - . @ ' ' 7 : ; ) } } ( ) - $ $ ",
": : # + ( < 4 % # 9 c b a , , a b 5.x x x x x x x x x x x x x x x 6.!.7.8.Y Z Z Z Z 9.0.x x x x x x x x x x x *.=.p = } ~ , $ # ~ / - $ $ ^ , ;   } } < * _ > , ",
"! @ $ ^ . 3 - $ 9 a 9 $ | / . ; b a.x x x x x x x x  .b.x x x x x c.d.Z Z Z Z Z Z Z Z e.x x x x x f.g.h.i.6.x x x x {.V W $ $ : + 3 { [ $ d 9 $ 7 8 } * ( 2 ; , ",
"# { e > # , a b 9 , # _ } = < / j.x x x x x x x x k.l.d.m.x x x x n.o.Z Z Z Z Z Z Z p.q.x x x x 6.r.Y Z s. .x x x x x x t.u.v.' @ 7 > , 9 c c b [ - % 3 . 7 $ 9 ",
", $ , 9 b c b a 9 > ~ ( = * * w.x.x x x x x x x x y.z.A.B.x x x x x C.D.Z Z Z Z Z E.F.x x x x x x F.G.H.6.x x x x x x I.J.K.L.M.' ' > , b c c c a $ > [ $ , b c ",
"; 9 b b c c , $ $ - / * = } ( N.x x x x x x x x x x x x x x x x x x x n.O.P.Q.R.%.x x x x x x x x x x x x x x S.J.K.T.U.U.U.U.V.[ : $ j , $ , 9 , 9 b b a a c c ",
"+ , b 9 [ ' ! @ # ) < * 0 * 0 W.K.X.x x x x x x x x x x x x x x x x x x x x x x x x x x x x x x x x S.J.Y.Z.`.U.U.U.U.U.U.U.U. +9 9 [ @ f 2 _ @ ' , c b 9 9 9 9 ",
"; , , # { - 2 ! ; / = = * * & .+U.U.`.++@+X.I.x x x x x x x x x x x x x x x x x x x x D #+J.$+%+&+U.U.U.U.U.U.U.U.U.U.U.U.U.U.*+c c $ 3 } 0 * 4 { 9 c b a d , , ",
"- k ! ! ' ^ ~ - - 4 < * < < } =+U.U.U.U.U.U.U.`.&+++K.Y.@+-+J.J.J.J.J.@+@+Y.K.%+Z.&+U.U.U.U.U.U.U.U.U.U.U.U.U.U.U.U.U.U.U.U.U.;+c , ' @ 3 8 6 4 ! , c c a ; - - ",
"3 } ( ) # ' { { . * * } * } } >+U.U.U.U.U.U.U.U.U.U.U.U.U.U.U.U.U.U.U.U.U.U.U.U.U.U.U.U.U.,+'+)+!+~+U.U.U.U.U.U.U.U.U.U.U.U.U.{+# ~ . @ ; { ! @ ; , b c , @ ~ % ",
"} = * 6 @ , d ' . * * & * = * ]+U.U.U.U.U.U.U.U.U.U.U.U.U.U.U.U.U.U.U.U.U.U.U.U.U.U.U.U.^+/+(+_+Z :+<+U.U.U.U.U.U.U.U.U.U.U.U.[+2 } } 2 { ; ; $ $ d b c 9 ' ^ - ",
"< = ( }+; b b '   = & ( * } 4 |+U.U.U.U.U.U.U.U.U.U.U.U.U.U.U.U.U.U.U.U.U.U.U.U.U.U.U.1+2+3+Z Z Z Z 4+5+U.U.U.U.U.U.U.U.U.U.U.6+( * = 0   . % ; , 9 c c b $ # - ",
"= 0 ) { d c c , ! } } } 0 8 % 7+U.U.U.U.U.U.U.U.U.U.U.U.U.U.U.U.U.U.U.U.U.U.U.U.U.U.U.8+9+Z Z Z Z Z Z 0+U.U.U.U.U.U.U.U.U.U.U.a+* } } * * } ( | , 9 c b , ' - ~ ",
"2 + ^ > d c c c $ 2 = * / ! - b+U.U.U.U.U.U.U.U.U.U.U.U.c+d+e+U.U.U.U.U.U.U.U.U.U.U.f+g+h+Z Z Z Z Z Z 4+U.U.U.U.U.U.U.U.U.U.U.U.i+} & * * * * _ d b c 9 , [ # - ",
"; # - - e c c c b ^   ) ; # 1 3 j+U.U.U.U.U.U.U.U.U.U.U.8.Z k+U.U.U.U.U.U.U.U.U.U.U.l+(+Z Z Z Z Z Z Z Z m+U.U.U.U.U.U.U.U.U.U.U.7+& } * * * } @ b h a n+: > [ ; ",
"+ 2 (   ^ , 9 b c b $ ; $ { 3 ( o+U.U.U.U.U.U.U.U.U.U.U.p+Z q+U.U.U.U.U.U.U.U.U.U.U.r+s+Z Z Z Z Z Z Z Z t+U.U.U.U.U.U.U.U.U.U.U.u+. _ ) 2 ) ! $ b a : 2   ! ; { ",
"* * } 3 : > ' $ 9 c b : - -   ( v+U.U.U.U.U.U.U.U.U.U.U.~+w+U.U.U.U.U.U.U.U.U.U.U.U.x+y+Z Z Z Z Z Z Z Z z+U.U.U.U.U.U.U.U.U.U.U.A+$ d $ ' ' ' > , , { ( * 4 ~ : ",
"} / | # # ~ 2 . { 9 c , $ ' + % B+U.U.U.U.U.U.U.U.U.U.U.U.U.U.U.U.U.U.U.U.U.U.U.U.U.C+D+Z Z Z Z Z Z Z Z m+U.U.U.U.U.U.U.U.U.U.U.E+$ , , [ $ { { $ , # 3 / 2 ! e ",
". @ $ $ + } * 6 @ , 9 b c 9 $ ' F+U.U.U.U.U.U.U.U.U.U.U.U.U.U.U.U.U.U.U.U.U.U.U.U.U.U.G+_+Z Z Z Z Z Z H+U.U.U.U.U.U.U.U.U.U.U.U.I+3 # d $ : : ; $ , $ # ^ { ' , ",
": ' $ - 8 ( ) % ; , , 9 c b , $ J+U.U.U.U.U.U.U.U.U.U.U.U.U.U.U.U.U.U.U.U.U.U.U.U.U.U.K+s+Z Z Z Z Z 4+w+U.U.U.U.U.U.U.U.U.U.U.U.L+_ { 9 9 , $ ' , , , , > ^ 1 5 ",
"$ , ' | 4 % { ' $ ' ; ; , 9 , $ M+U.U.U.U.U.U.U.U.U.U.U.U.U.U.U.U.U.U.U.U.U.U.U.U.U.U.U.N+9.Z Z o.O+~+U.U.U.U.U.U.U.U.U.U.U.U.U.P+; , b 9 , $ > , , , $ # - . 2 ",
"+ : , # - # $ $ { . / 2 ^ a 9 , Q+U.U.U.U.U.U.U.U.U.U.U.U.U.U.U.U.U.U.U.U.U.U.U.U.U.U.U.U.m+z+R+5+U.U.U.U.U.U.U.U.U.U.U.U.U.S+L+T+$ 9 b 9 # - - , , $ $ ' { ~ 3 ",
"( + $ , , ' ; - 2 * = U+# b b 9 $ V+U.U.U.U.U.U.U.U.U.U.U.U.U.U.U.U.U.U.U.U.U.U.U.U.U.U.U.U.U.U.U.U.U.U.U.U.U.U.U.U.U.W+X+Y+2 4 / { a b , 7 . @ $ ^ 1 : # ! _ + ",
"= 2 : , ' | 3 4 0 = * / $ c c a 5 Z+`+U.U.U.U.U.U.U.U.U.U.U.U.U. @.@+@,+U.U.U.U.U.U.U.U.U.U.U.U.U.U.U.U.U.U.U.@@#@$@%@, , # + ( 8 # a 9 : + ! { @ 2 ) - - _ ~ ; ",
"= ) ' $ + 6 } = * * ( ! 9 c b j ! ( &@Y+*@=@-@U.U.U.U.U.U.U.U.U.;@Z Z >@U.U.U.U.U.U.U.U.U.U.U.U.U.U.,@'@)@!@~@, c 9 ; - ' , > - ; 9 b 9 # - : ! 4 } ) - - ! ; , ",
"3 | ; ~ & * } * } ( ~ $ 9 b d d ' | / _ ' ' 7 {@]@E+^@B+/@(@j+_@7.Z Z :@U.U.U.U.U.U.j+W+<@[@}@J+|@1@$ $ $ ' ' 9 c , { @ $ 9 9 9 9 9 a 9 , $ {   ( ( % # ' ' , , ",
"$ ' + & * = = = 4 + ' d b 9 d , , , ; { ' $ ' : $ 9 b $ _ } * 2@3@4@5@6@~@7@8@9@0@a@; $ , , 9 c b > @ { $ , , , 9 d 9 9 c c b 9 9 , 9 b 9 , 7 / _ | # $ , , , 9 ",
"b , - ) 6 } * ( 7 , a a e ! % ! $ a b a d , , 9 a c b ^ ( * 8 _ ! ; d a , { | : $ # : , , a c c d ' # $ , , , # $ d , , c c , > $ , 9 9 , , : - ' $ $ $ > $ 9 b ",
"b 9 , > { _ _ - $ b c a @ }   - , c c c b d , d b b , { 2 6 % ' , d 9 , ' - @ ' > > , , 9 c c b $ ; : $ , , , $ , , , , 9 9 ' # ' , , , , , , [ , , : @ ] , b b ",
"d $ ' g j , 9 b c c c 9 { @ ' 9 c c 9 , d , , , 9 > { : : 5 ' , , $ , [ $ ' $ ' ; , 9 a b 9 9 : ~ ) 1 ' , , , 9 b 9 , $ > ' : - { $ , 9 a 9 9 d d , ^ ! ; 9 a c ",
", ' 7 ! # 9 b c c a , , , 9 a c c a > { # $ , > $ $ ' , b 9 $ ^ - # , 9 a 9 9 , , b c c $ ! ; @ ( * 6 % # , 9 a a , $ ' { { ' - : , a b c c c c b 9 [ $ , 9 b c ",
", ; - ; - | | @ ; 9 , $ 9 b b a 9 k ) 2 ~ ' , $ $ , , , a 9 ^ o ~ - , b c c b c c c c a ^ ! : 7 ( * * 6 ! , 9 9 , : ! 3 . ; $ # d , , ' $ b c c c b 9 , d $ 9 9 ",
"d $ > ' . } * * 4 - , d b c 9 , ;   * ( ! $ , , > # : j 9 9 $ ^ 5 > b c c b 9 9 9 9 $ 5 { # , @ 6 0 } / ! 9 b 9 # 3 6 ) { $ - ' , ^ ! 4 2 : $ , 9 9 9 , , : > $ ",
", ' 7 . 4 } * = 0 | , , $ ; : , ;   }   > , $ { % 2 % : , , , # - : a c a $ $ $ , $ _ } / 7 $ : % / 4 @ , c c $ _ ( 3 # d $ : [ ^ +   * 4 k { ; , 9 b a , $ $ - ",
", { ) } * } } * * ~ , ' _ 2 - $ ; . 8 - $ # - / * * U+{ 9 , ^ | | i 9 c 9 $ $ , , $ . = ( 3 ; , g { - , c c c $ f _ ^ , 9 , , : % ) 6 * 2 { ; ' $ 9 c c 9 , $ + ",
"' ~ 6 * * * ( } 6 - ' . } ( 7 ; { { ^ , : ! 3 } = = 4 ' c 9 @ % @ : , $ ' $ , , , , - 6 ( 3 ^ d , $ , 9 b c c 9 ' # , 9 a a , 5 2 4 4 / 7 ' $ $ # , c b 9 $ ' ! ",
"{ 4 < * } & } 4 ~ - . & = ( + ! 1 $ 9 e 7   } = } 8 7 9 c 9 ' ; ' , ' + 2 - $ , [ , $ k % @ # 9 , $ [ , , b c 9 { + - , c b , ; . n f - ' $ ' ! ~ # 9 d ' - { - ",
"- ( = = = 0 ( % - 3 0 = * / ! ~ ; a b $ % 6 & / % { 9 c c 9 , , , , # 3 * 4 ! : $ , , $ ' $ , b b 9 d $ ' 9 c b $ # $ 9 c b [ $ { - ' , , : ! / . ; , , $ ] - ; ",
"^ % 2 ( } 4 % ^ ! ( * * 6 | # ^ g a b , @ + ] ' d b c c 9 { 7 - : : # + & = ( ) - ' $ , , 9 a c c c b d , 9 a c b 9 9 9 d d ' $ , > ' $ , ^ 7 7 { $ , , $ $ > $ ",
", ' ^ @ ! - : 7 6 = = ( ! $ b b a 9 a , ; # 9 b c b d > { 8 } ( 2 ) ! @   * = < 2 ~ { , 9 c c b 9 a c c , $ , 9 9 d 9 b b a , , 9 9 , 9 9 ' { ! ! @ - ; , $ , d ",
"b [ ; ' , , # 3 } } ( ! , c c a , : ' , , , 9 9 , : ' ' _ * = = < } . - ! } = = } } 3 $ a c c d ; , c b 9 $ # ' $ $ , b c c b b c c b b 9 @ / } 4 /   + $ , $ $ ",
"b $ { ; ' > : @ + @ ' 9 9 $ # ~ 2 8 3 { ' ; @ { - ) ! {   } * * 0 = } . - +   8 6 4 ! , c c c a : $ a 9 , # _ ! : $ $ , a b d , 9 , , d # / * = } } } 4 ! $ > ' ",
"a , + / ! : , , a b c b # 2 6 < = = *   : # % ! ! 4   ! ) ( * * } * *   { ' : - { ' , a d $ 9 , , , , , $ @ 4 _ ' [ ; @ - $ d $ { + ^ $ ; _ ( } ( } * * 3 > ' : ",
"9 $ ! ) ~ : 9 b c c 9 ' 3 } * = = * = } ) 7 ^ $ 7 ( & % ~ 6 * = 0 * * 4 @ , $ ; { g 9 9 $ # , e ' 1 # , ; 2 4 + > ' ! 3 ! $ g @ 3 4 - { - 1 3 ( & & } *   { # ' ",
"' ; ; ^ # , b c b 9 $ ! } * * = = * = = } . ; $ 1 4 } ! ; 2 0 = = = * 8 @ $ ^ | _ - $ 9 9 d c a : % - , - 4 ) ^ $ { 2 / 7 e ' _ 6 4 @ % ) @ @ 2 } ( } } 2 ; # , ",
"| _ @ ; ' $ d 9 $ ' ' _ } * 0 * = * * * 0 / { # { ~ / @ > . } = = = 6 ! ' @ / } } / + # 9 c c a $ - ; , { . - $ # % 2 % n+, # 3 ( _ @ / ( 7 : 7 2 /   2 ] , $ , ",
"  } 2 7 { ; ' > - 1 ^ ) } } } } * * * = * 4 1 7 | @ + 1 > _ * = = } % > : / = = }   + 1 ^ j a 9 9 , , , ' # $ $ - _ ! : , , ; . ) @ ; % 2 ! ; - | ! @ { e 9 > > ",
"/ } ( 2 + 5 > [ - - ; 2 } } } * * * * = } ) + 4 4 ! { 1 { % ( } 4 . { $ - 4 0 & 3 - ' - _ @ > a c c b 9 [ ' ' ' : : ' ; ; $ > ^ # ' , 1 3 . _ 2 2 ) ~ k ' $ ' # ",
"    & }   @ $ , ; ^ # . 0 * * * = * * * 8 ! | 4 4 @ $ ; @ 1 ] @ { ' $ $ - . ) + ^ ' ' - . + { > b c c c d ' ' [ e ' ~ 4 4 ! ' 9 a , : _ 6 & } * } ( 3 ~ 7 1 # : ",
"4   & = ( % ' e ; - { 3 } * * * = = = & % ^ ' 7 _ 1 ^ 1 | ; , , , $ # # ; { { { @ % _ . ) 2 ) % : $ , c b 9 d $ ] 3 & * ( + ' b c [ ; + / 6 ( ( / _ ! . / 2 7 - "};
