/* XPM */
static char * cat_eyes_red_dark_xpm_xpm[] = {
"80 80 201 2",
"  	c #110F0F",
". 	c #0F0D0D",
"+ 	c #0D0B0B",
"@ 	c #0B0909",
"# 	c #070606",
"$ 	c #050404",
"% 	c #0E0C0C",
"& 	c #141212",
"* 	c #161313",
"= 	c #171414",
"- 	c #0A0808",
"; 	c #080606",
"> 	c #060404",
", 	c #040303",
"' 	c #060505",
") 	c #100E0E",
"! 	c #0C0A0A",
"~ 	c #0E0B0B",
"{ 	c #090707",
"] 	c #0A0707",
"^ 	c #080707",
"/ 	c #120F0F",
"( 	c #141111",
"_ 	c #0F0C0C",
": 	c #070505",
"< 	c #161414",
"[ 	c #050303",
"} 	c #151212",
"| 	c #0D0A0A",
"1 	c #0B0808",
"2 	c #110E0E",
"3 	c #100D0D",
"4 	c #131010",
"5 	c #090808",
"6 	c #131111",
"7 	c #0C0909",
"8 	c #121010",
"9 	c #030202",
"0 	c #151313",
"a 	c #020202",
"b 	c #020101",
"c 	c #010101",
"d 	c #030303",
"e 	c #040404",
"f 	c #0D0C0C",
"g 	c #050505",
"h 	c #010000",
"i 	c #090606",
"j 	c #040202",
"k 	c #4E0203",
"l 	c #510202",
"m 	c #5B0201",
"n 	c #5B0304",
"o 	c #890102",
"p 	c #8A0100",
"q 	c #7D0202",
"r 	c #5E0102",
"s 	c #560102",
"t 	c #6C0202",
"u 	c #830201",
"v 	c #8A0101",
"w 	c #6F0102",
"x 	c #0A0909",
"y 	c #720204",
"z 	c #8B0100",
"A 	c #890101",
"B 	c #7C0202",
"C 	c #5A0202",
"D 	c #730202",
"E 	c #830101",
"F 	c #890200",
"G 	c #8C0000",
"H 	c #820101",
"I 	c #760101",
"J 	c #8A0102",
"K 	c #8B0101",
"L 	c #8C0001",
"M 	c #880101",
"N 	c #710202",
"O 	c #530102",
"P 	c #530104",
"Q 	c #7A0101",
"R 	c #8D0000",
"S 	c #5A0102",
"T 	c #7A0000",
"U 	c #840101",
"V 	c #610001",
"W 	c #4E0102",
"X 	c #730102",
"Y 	c #660104",
"Z 	c #570103",
"` 	c #6E0202",
" .	c #420203",
"..	c #2F0103",
"+.	c #640203",
"@.	c #850102",
"#.	c #890100",
"$.	c #8A0001",
"%.	c #5D0002",
"&.	c #790000",
"*.	c #8B0000",
"=.	c #630102",
"-.	c #150102",
";.	c #0C0001",
">.	c #7D0201",
",.	c #680101",
"'.	c #5D0203",
").	c #770102",
"!.	c #860101",
"~.	c #840201",
"{.	c #350101",
"].	c #050101",
"^.	c #260101",
"/.	c #7C0102",
"(.	c #5D0102",
"_.	c #740101",
":.	c #320201",
"<.	c #030100",
"[.	c #040000",
"}.	c #6C0100",
"|.	c #8C0100",
"1.	c #740202",
"2.	c #4F0102",
"3.	c #630103",
"4.	c #810101",
"5.	c #870201",
"6.	c #870000",
"7.	c #3D0101",
"8.	c #000101",
"9.	c #5B0202",
"0.	c #850101",
"a.	c #790101",
"b.	c #060101",
"c.	c #050100",
"d.	c #1F0101",
"e.	c #790200",
"f.	c #8A0000",
"g.	c #7C0203",
"h.	c #5F0202",
"i.	c #870101",
"j.	c #890001",
"k.	c #5B0102",
"l.	c #0A0100",
"m.	c #460001",
"n.	c #860100",
"o.	c #880000",
"p.	c #800102",
"q.	c #590204",
"r.	c #890000",
"s.	c #780301",
"t.	c #0F0100",
"u.	c #0C0000",
"v.	c #530202",
"w.	c #840100",
"x.	c #800101",
"y.	c #650202",
"z.	c #820102",
"A.	c #3F0101",
"B.	c #580102",
"C.	c #530101",
"D.	c #570202",
"E.	c #880100",
"F.	c #5E0101",
"G.	c #7D0103",
"H.	c #8B0001",
"I.	c #6A0102",
"J.	c #7E0102",
"K.	c #490203",
"L.	c #0C0B0B",
"M.	c #790102",
"N.	c #870100",
"O.	c #880200",
"P.	c #6B0101",
"Q.	c #5B0101",
"R.	c #840102",
"S.	c #5A0201",
"T.	c #750203",
"U.	c #8C0101",
"V.	c #680203",
"W.	c #560202",
"X.	c #800100",
"Y.	c #590201",
"Z.	c #610201",
"`.	c #780102",
" +	c #830102",
".+	c #700203",
"++	c #5D0302",
"@+	c #670102",
"#+	c #7F0201",
"$+	c #6E0103",
"%+	c #5C0304",
"&+	c #550103",
"*+	c #4B0202",
"=+	c #5B0103",
"-+	c #5D0103",
";+	c #060606",
">+	c #0F0E0E",
",+	c #0B0A0A",
"'+	c #131212",
")+	c #0E0D0D",
"!+	c #100F0F",
"  . + @ # $ $ # % & * * = = = = & . - ; > , , , $ ' ' $ , ' - + . ) ! - ~ % - { @ - { ] { @ ^ # $ $ ! / ( ( _ { $ : : ' : ' ; / = = = = * = = < * * = = = = = < ",
"{ # ' ' ' [ # % ( = = * * * * } / | 1 % _ # $ , { % . ! ' { . / 2 _ @ - . 2 ) 3 / 4 / 3 - , # | 5 $ : { @ @ ; $ , ' > , , , ; 4 = = * * } } * * * = = = = = = = ",
"$ $ $ : ' $ ! 4 * = * } 6 / . ~ 7 ^ - 8 } _ ^ $ ! 4 } 4 ! { + ! { 7 % 3 ( = = = = = = ( + $ @ 2 % # $ [ , , $ [ , $ $ , , 9 > / * 0 & /   4 } * = = = = = = = = ",
"7 - ^ # $ # 2 * = = } ( 4 _ @ ; : : 7 ( * ( ~ # + ( = * ) ^ ' $ : 3 } * < = = < * = = * 3 # + 6 / 7 ' , , $ ; ^ > , 9 a b c 9 @ 3 ~ @ @ ! . 4 } = = = = = = = = ",
"6 8 ) ! > ; / * < = * * * (   | # $ - ( = } + { 2 * = = 8 - $ : _ } = = = = * < } } = * / { ! 6 } . ; , $ @ ) . { , b c c c c 9 , , d $ ; ! ) 6 * * = = = = = = ",
"= * * / { ; 2 * = = * * = = = ( @ $ ^ 4 * } % 1 4 * = = } + > { 8 * = = = * } < * } * = 8 - ^ 3 &   ; $ ;   } 6 { a c b 9 9 9 b c b 9 , : { ! 3 6 } * * * = = * ",
"= = = * 3 ^ % ( = = 0 * = = = ( ! , :   = * 3 7 / * = = = 3 ' - 8 * * = = = = = * * 0 } ) > e ]   / - $ - / 4 | , c a , , , , 9 c b , # ^ # ^ 1 + 3 / 8   / 4 / ",
"= = = = 4 @ 1 2 * = * * = * } 8 { , $ - _ ) + - 3 ( } * = ) : + ( * * * = = = = = 0 & 2 { # { ; { ~ ; , $ # ' a c b , , ' # $ , 9 $ !   . @ - { ' ; { { { { { ^ ",
"= = * * } 4 + ! / * * * * } 2 { , $ [ , , $ $ , # 7 3 4 6 % ; . } * = } } } * } (   ! - ~ ) . @ , 9 9 b b b c c c b , $ ; { $ , > f * = ( / / ~ : , , , : { { : ",
"= * } 6 6 } 2 ; ~ ( 6 8 . | - $ ; % _ _ . ! : , $ ' { - { ' , { ! + + | ! ! | ~ % + @ + 2 ) 7 ; 9 c c c b c c c c b [ $ $ [ , ' : . = * & ( } } % ' $ [ @ 2 / % ",
"= * 8 3 _ 3 | ' ' ; ; ^ ' $ $ # 3 } * ( ) @ 1 - ; ^ - ' b b c b d , , , , : - + ) 3 | 1 @ ; , 9 a b a , , , , a c b ; 7 # [ , [ g ~ ( * 0 } * = ( | # $ | ( * ( ",
"} ( 3 ! { : $ 9 a b b d , , ; % ( * 0 ) ; $ %   1 > : $ b h c a i ~ | ^ $ 7   4   + ; ; - ; $ $ , , # + + 7 { [ c b : - : d a a $ ! / = * & * * } 3 ^ > ~ ( < * ",
"( ) + - ' , 9 b b a , e , j ; ! 3 2 . k l , ! 3 { $ $ $ [ a c b ; 2 } 2 - 7 . | - - @ @ @ ^ - - $ : . ( ( 8 ) m a b , $ 9 b c c d # _ } * } * = * % : ' % 4 * = ",
"2 + - { ' ' $ , ' # : g , # 1 # ' # n o p q r # $ : - ! | 5 , a , 7 } } % ' ' , ; 3 ) ! ^ ' - { ' + ( * s t u v w 9 d , , 9 b c b , ; + _ / 4 4 3 ^ , [ @ / & * ",
"% 1 - ! x { - ~ ) ) + ^ $ @ 2 - $ $ y z z z A B C % / ( ( ) ^ ' # # +   % ' $ ^ % 4 2 { ' # ! - {   * D E p F G H , 9 d ' ^ $ , 9 9 d , $ - ! @ : a b 9 ^ . 4 } ",
"@ { _ 8 | - 3 } * * } % > @ 4 + > > I J K z L G M N O = 0 / - 7 2 + ; - @ ' [ 1 _ + - > $ ; - ^ 1 P Q v K R p G M S 9 9 - 2 | 5 > 9 b a 9 j , 9 a b b a ' ! ) 6 ",
"; - 4 < _ { 2 * = = = ( ! {   % ' $ T A G G G G U V W X Y * % | ( / { $ > , a ' : ' $ $ ' ' Z `  ...+.@.#.G G G $.%.9 a x 6 7 : , b c b c b a c c b 9 9 # + _   ",
"% 4 * 0 _ { . ( * = = 0 3 ; ! @ > , &.A G G G *.=.-.;.` p >.,.~ & } . ; , 9 b $ { @ ^ { '.).!.~.{.].^./.p G G G M (.' c , { $ b c c d : $ b c c c d $ > - _ 3 _ ",
"4 = } 2 @ ^ @ ) } = = = ( _ ^ > , $ _.$.G G K U :.<.[.}.|.G |.H 1.2.) { ' $ [ ~ ( ( 3.4.M 5.6.E 7.c 8.9.p G z z 0.. , c 9 , d a a d , - - $ c c a , 1 + ^ - ~ ! ",
"} * 8 @ : ' ' - 2 & } (   7 $ a [ ^ w $.*.*.K a.b.c.d.e.L G p f.p g.! : - { { / = h.!.i.L *.#.j.k.l.8.m.n.G p o.p.! , d $ ' > , # ^ e 9 9 , 9 d , , @ . : $ : ' ",
"4 / ! : $ ' ' $ ; ! ! @ ^ [ d 9 : 7 q.0.o.r.L s.t.u.v.w.f.G G G G x.# # ] : ; 2 * y.p M *.G G G z.A.b B.#.G |.j.X { ' : % ) { $ @ + ^ , a 9 , [ $ , : - $ $ ' # ",
"~ 7 > $ ' - @ ; [ , , , $ > ' $ [ $ { t o.o.K !.C.D.4.E.*.G G L M F.a 9 9 , : % } = G.H.G G G G K H I.J.#.G |.H K., ^ L.4   ; > + / ~ , a b a : @ > $ $ $ # - + ",
"' > > # % 4 4 _ ; , ' : ; x ^ : - | ~ % M.$.j.r.N.O.G G G G z v P.b c c 9 , ' @ / } Q.x.*.z G G G G $.$.p z R.S.d , ! 8 8 | : ' - 2 4 ; 9 c a # L.# ' > ' ] 3 ( ",
", , ; + ( = = } _ ' $ # @ | - @ 4 * 0 6 / T.0.j.j.H.|.z U.z 0.V.j $ [ d > : $ , # _ + W.H O.z G R R |.G z X.Y.# , $ 3 / | ; $ $ ' L./ @ , 9 c a > $ $ : ' -   ( ",
"a , ! 4 * = = = / # , ' ] - ~ / * = * * < & Z.`.!.o U.o  +.+++$ { _ % - : ' ' $ 9 , $ $ $ @+q !.A A v #+$+| _ { ' # % @ ' $ $ $ $ # @ ; , 9 c b 9 , [ ; | % 2 / ",
"b $ 2 * = = * = 6 { $ ' ; i   } * = * * = } / { $ %+r &+> > # 7   * * 3 # $ , , , a b 9 9 , 7 *+=+-+O , [ { - : ' ' ; ' ' { @ ! - > , , , d a 9 9 9 d # 2 ( / % ",
"9 : 4 = 0 = = = ( @ ' $ > { ( = * * * * * * ( 7 $ $ , 9 , , ' + } * & ~ # ' ' ' # $ c c c a , $ b c c c c b a a , [ $ { + 2 8 4 3 { $ , , d a 9 9 b c a g @ - : ",
"c , ) = * = * * 6 @ # $ d : 2 } * * * * * 0 4 - , 9 b c b , # . * * 2 - $ $ ; { { : 9 c h h c 9 > - 1 : , 9 b b 9 , $ ; % / 8 2 ~ : $ , , $ , a a 9 9 9 9 9 j , ",
"c d @ ( < 0 * = 4 - : , a 9 { 2 * * 0 * * * 2 ; d 9 b c b , ;++ ( 6 + : $ ; ^ : # : $ b c b 9 { / * } 2 7 ' 9 b 9 $ ' $ : { { ; ' [ $ , $ @ ^ d : ! 1 > $ , , , ",
"b , - / = } * = / : , 9 b c 9 ] 4 } } 6 / | ; 9 b b c c b a 9 $ - - ' $ ' : # - f - , a $ ; $ -   } ( ) @ $ 9 b , @ % { , , > $ ' ^ ; > ' | { ' % ( / + ; $ $ , ",
"b , - ) } = = } | , 9 b c c c 9 ^ + | - # , $ , , ' ' $ $ 9 a c b 9 $ ' ; ! 3 8   ^ d '   _ $ > | _ ! { ' , 9 a - 6 & 2 ^ , : : - . @ ' ' 7 : ; ) } } ( ) - $ $ ",
": : # + ( < 4 % # 9 c b a , , a b a a a a d ' ^ ~ )     2 1 d b c a ' ; ! 2 8 ) ] , d @ } 3 ' , ; # $ $ , 9 b 9 % * = } ~ , $ # ~ / - $ $ ^ , ;   } } < * _ > , ",
"! @ $ ^ . 3 - $ 9 a 9 $ | / . ; b c a c b 9 $ | ( } * = * 2 : , a a , [ ; + ! # e , $ x 4 3 ' , $ $ $ $ 9 9 9 j @ ( * = 2 $ $ : + 3 { [ $ d 9 $ 7 8 } * ( 2 ; , ",
"# { e > # , a b 9 , # _ } = < / ; a 9 9 9 , { 8 } * * * * 4 - $ $ ' a c j : { ] - @ { ^ + @ ' ' ' { ^ , b $ ' , # _ ( = 4 # $ ' @ 7 > , 9 c c b [ - % 3 . 7 $ 9 ",
", $ , 9 b c b a 9 > ~ ( = * * * % , , , , , + } = } } } * ( @ $ - 7 d b $ 7 + ; - / _ ' , 9 d : # ^ : $ 9 1 @ > $ ^ ) } / ; ' $ ' ' > , b c c c a $ > [ $ , b c ",
"; 9 b b c c , $ $ - / * = } ( } ) ' $ g , , % * = = } * * 4 { : % >+$ b > - # $ ! } ( ; b c b 9 , e , $ , | ^ , 9 9 $ - - ' $ , [ : $ j , $ , 9 , 9 b b a a c c ",
"+ , b 9 [ ' ! @ # ) < * 0 * 0 }   ; > $ e , ~ } * < * * * . ' { ) ~ , b $ > , ' . 4 ~ $ 9 , [ g { - ' 9 , : , a c c c c b 9 9 9 9 9 [ @ f 2 _ @ ' , c b 9 9 9 9 ",
"; , , # { - 2 ! ; / = = * * & } 3 ^ ' , , , ! } = * * } 4 - $ ; + ^ 9 b d , , # % ! ' 9 d , ^ + 2 3 ' b c b 9 $ : > 9 c c c b c c c $ 3 } 0 * 4 { 9 c b a d , , ",
"- x ! ! ' ^ ~ - - 4 < * < < } } . ; # $ 9 9 ; ( = 0 6   ! ' $ $ $ , b c 9 , , $ : [ $ [ ' @ . 2 2 - , b c ' ! ) ( 4 - 9 b b b b c , ' @ 3 8 6 4 ! , c c a ; - - ",
"3 } ( ) # ' { { . * * } * } } } . $ : ; d c $ _ } 6 3 @ > ' ; $ a c c c 9 d , d 9 9 , ' | ( / | # , 9 a > 8 } } = ( ! $ 9 a b 9 # ~ . @ ; { ! @ ; , b c , @ ~ % ",
"} = * 6 @ , d ' . * * & * = * ( @ $ : > b c b ' @ ! ^ $ , $ $ c c b b b a 9 a c h c 9 ; 3 ) { $ , 9 a , @ 6 * * ( ) { $ > : d ; 2 } } 2 { ; ; $ $ d b c 9 ' ^ - ",
"< = ( >+; b b '   = & ( * } 4 . { $ > # d b b b 9 $ > $ , 9 a b , ' @ + + # 9 c h b d ' # ' $ , 9 b 9 , # % & & ~ { ; $ @ . @ % ( * = 0   . % ; , 9 c c b $ # - ",
"= 0 ) { d c c , ! } } } 0 8 % - { ^ - ~ ; $ , 9 a 9 , d a c b ' ! 2 } * ( + e a c a , , [ $ $ , 9 a $ # [ : ! % ' > ; : . 4 . / * } } * * } ( | , 9 c b , ' - ~ ",
"2 + ^ > d c c c $ 2 = * / ! - - 3 4 ( 2 # , ^ ! 7 @ ^ $ d a ' _ 6 } * * } 3 ' a c 9 , > @ ! - $ 9 , @ _ - $ > - : $ ' - 8 4 ~ ) } } & * * * * _ d b c 9 , [ # - ",
"; # - - e c c c b ^   ) ; # 1 3 } = * . ' ' ~ ( 0 } _ ' b 9 ! ( } ( ( } * / ; 9 9 , $ ! 4 4 ! , 9 ' _ / ) - $ ^ ' , $ ! ( 4 x @ / & } * * * } @ b h a ;+: > [ ; ",
"+ 2 (   ^ , 9 b c b $ ; $ { 3 ( = } 2 7 { +   } * * 3 ' c , 3 } & ( ( ( * / > , , , - 8 / @ ' , , , ^ ! + - : ' $ > - ! 3 _ : ' ! . _ ) 2 ) ! $ b a : 2   ! ; { ",
"* * } 3 : > ' $ 9 c b : - -   ( & 2 { - 3 ( } * } / @ , c [ ) } } * 0 * } ! j d [ , + 6 + , [ ' > , [ $ [ , : ; , ^ . @ @ ; , $ ' $ d $ ' ' ' > , , { ( * 4 ~ : ",
"} / | # # ~ 2 . { 9 c , $ ' + % 7 ; ; . & } / _ ! { > 9 b e _ } * * = } 3 $ b a [ , - + ' , e 5 ; $ # @ ^ $ - ~ : ; 2 ,+' ' ;+{ { $ , , [ $ { { $ , # 3 / 2 ! e ",
". @ $ $ + } * 6 @ , 9 b c 9 $ ' , , @ 8 ( 4 _ ; , , , , , $ % } * 0 & 3 # c c c b a 9 , $ $ e : ; { . 4   1 % 4 ! ' ] ' # ! 3 / 4 3 # d $ : : ; $ , $ # ^ { ' , ",
": ' $ - 8 ( ) % ; , , 9 c b , $ , $ @ _ 7 - # $ $ $ , , , , | ( }   @ $ b 9 a c c b $ - @ @ e , ' % & * * / _ 2 - b c , # @ ~ 3 2 _ { 9 9 , $ ' , , , , > ^ 1 5 ",
"$ , ' | 4 % { ' $ ' ; ; , 9 , $ $ , ' # $ , ' - ! - $ 9 c a $ ; # $ b h c d 9 c c 9 % & ( / - d > ~ 4 0 } . : $ 9 c b , > $ [ ' { ; , b 9 , $ > , , , $ # - . 2 ",
"+ : , # - # $ $ { . / 2 ^ a 9 , $ $ $ [ , ' | / 4 2 { d c h c c c b c c c b c c b , . } * ( L.: , ' { 7 5 , b b b c 9 , { @ - - { $ 9 b 9 # - - , , $ $ ' { ~ 3 ",
"( + $ , , ' ; - 2 * = '+# b b 9 $ { { > $ - / * < } ! , c c c d ' - ! { , c c a $ { @ + 3 + # ; $ , d 9 b c b , a c 9 , # + 2 4 / { a b , 7 . @ $ ^ 1 : # ! _ + ",
"= 2 : , ' | 3 4 0 = * / $ c c a 5 / / @ ' + & = * } ! 9 b 9 # _ 6 } < ( 7 d 9 , { + { $ ' $ , ; ' , d 9 9 9 $ , b b , , , # + ( 8 # a 9 : + ! { @ 2 ) - - _ ~ ; ",
"= ) ' $ + 6 } = * * ( ! 9 c b j ! ( * _ ' - / * 4 . ; 9 c [ % } = * 8 _ : , , [ , : ' , , , , , a a 9 d , : - , c 9 ; - ' , > - ; 9 b 9 # - : ! 4 } ) - - ! ; , ",
"3 | ; ~ & * } * } ( ~ $ 9 b d d ' | / _ ' ' 7 . ! # [ 9 , | ( } * ( ~ ' d d ' $ , > $ , , , , 9 c 9 $ $ $ ' ' 9 c , { @ $ 9 9 9 9 9 a 9 , $ {   ( ( % # ' ' , , ",
"$ ' + & * = = = 4 + ' d b 9 d , , , ; { ' $ ' : $ 9 b $ _ } * * & )+: a 9 > { ' $ ^ ; $ , , 9 c b > @ { $ , , , 9 d 9 9 c c b 9 9 , 9 b 9 , 7 / _ | # $ , , , 9 ",
"b , - ) 6 } * ( 7 , a a e ! % ! $ a b a d , , 9 a c b ^ ( * 8 _ ! ; d a , { | : $ # : , , a c c d ' # $ , , , # $ d , , c c , > $ , 9 9 , , : - ' $ $ $ > $ 9 b ",
"b 9 , > { _ _ - $ b c a @ }   - , c c c b d , d b b , { 2 6 % ' , d 9 , ' - @ ' > > , , 9 c c b $ ; : $ , , , $ , , , , 9 9 ' # ' , , , , , , [ , , : @ ] , b b ",
"d $ ' g j , 9 b c c c 9 { @ ' 9 c c 9 , d , , , 9 > { : : 5 ' , , $ , [ $ ' $ ' ; , 9 a b 9 9 : ~ ) 1 ' , , , 9 b 9 , $ > ' : - { $ , 9 a 9 9 d d , ^ ! ; 9 a c ",
", ' 7 ! # 9 b c c a , , , 9 a c c a > { # $ , > $ $ ' , b 9 $ ^ - # , 9 a 9 9 , , b c c $ ! ; @ ( * 6 % # , 9 a a , $ ' { { ' - : , a b c c c c b 9 [ $ , 9 b c ",
", ; - ; - | | @ ; 9 , $ 9 b b a 9 x ) 2 ~ ' , $ $ , , , a 9 ^ L.~ - , b c c b c c c c a ^ ! : 7 ( * * 6 ! , 9 9 , : ! 3 . ; $ # d , , ' $ b c c c b 9 , d $ 9 9 ",
"d $ > ' . } * * 4 - , d b c 9 , ;   * ( ! $ , , > # : j 9 9 $ ^ 5 > b c c b 9 9 9 9 $ 5 { # , @ 6 0 } / ! 9 b 9 # 3 6 ) { $ - ' , ^ ! 4 2 : $ , 9 9 9 , , : > $ ",
", ' 7 . 4 } * = 0 | , , $ ; : , ;   }   > , $ { % 2 % : , , , # - : a c a $ $ $ , $ _ } / 7 $ : % / 4 @ , c c $ _ ( 3 # d $ : [ ^ +   * 4 x { ; , 9 b a , $ $ - ",
", { ) } * } } * * ~ , ' _ 2 - $ ; . 8 - $ # - / * * '+{ 9 , ^ | | i 9 c 9 $ $ , , $ . = ( 3 ; , g { - , c c c $ f _ ^ , 9 , , : % ) 6 * 2 { ; ' $ 9 c c 9 , $ + ",
"' ~ 6 * * * ( } 6 - ' . } ( 7 ; { { ^ , : ! 3 } = = 4 ' c 9 @ % @ : , $ ' $ , , , , - 6 ( 3 ^ d , $ , 9 b c c 9 ' # , 9 a a , 5 2 4 4 / 7 ' $ $ # , c b 9 $ ' ! ",
"{ 4 < * } & } 4 ~ - . & = ( + ! 1 $ 9 e 7   } = } 8 7 9 c 9 ' ; ' , ' + 2 - $ , [ , $ x % @ # 9 , $ [ , , b c 9 { + - , c b , ; . !+f - ' $ ' ! ~ # 9 d ' - { - ",
"- ( = = = 0 ( % - 3 0 = * / ! ~ ; a b $ % 6 & / % { 9 c c 9 , , , , # 3 * 4 ! : $ , , $ ' $ , b b 9 d $ ' 9 c b $ # $ 9 c b [ $ { - ' , , : ! / . ; , , $ ] - ; ",
"^ % 2 ( } 4 % ^ ! ( * * 6 | # ^ g a b , @ + ] ' d b c c 9 { 7 - : : # + & = ( ) - ' $ , , 9 a c c c b d , 9 a c b 9 9 9 d d ' $ , > ' $ , ^ 7 7 { $ , , $ $ > $ ",
", ' ^ @ ! - : 7 6 = = ( ! $ b b a 9 a , ; # 9 b c b d > { 8 } ( 2 ) ! @   * = < 2 ~ { , 9 c c b 9 a c c , $ , 9 9 d 9 b b a , , 9 9 , 9 9 ' { ! ! @ - ; , $ , d ",
"b [ ; ' , , # 3 } } ( ! , c c a , : ' , , , 9 9 , : ' ' _ * = = < } . - ! } = = } } 3 $ a c c d ; , c b 9 $ # ' $ $ , b c c b b c c b b 9 @ / } 4 /   + $ , $ $ ",
"b $ { ; ' > : @ + @ ' 9 9 $ # ~ 2 8 3 { ' ; @ { - ) ! {   } * * 0 = } . - +   8 6 4 ! , c c c a : $ a 9 , # _ ! : $ $ , a b d , 9 , , d # / * = } } } 4 ! $ > ' ",
"a , + / ! : , , a b c b # 2 6 < = = *   : # % ! ! 4   ! ) ( * * } * *   { ' : - { ' , a d $ 9 , , , , , $ @ 4 _ ' [ ; @ - $ d $ { + ^ $ ; _ ( } ( } * * 3 > ' : ",
"9 $ ! ) ~ : 9 b c c 9 ' 3 } * = = * = } ) 7 ^ $ 7 ( & % ~ 6 * = 0 * * 4 @ , $ ; { g 9 9 $ # , e ' 1 # , ; 2 4 + > ' ! 3 ! $ g @ 3 4 - { - 1 3 ( & & } *   { # ' ",
"' ; ; ^ # , b c b 9 $ ! } * * = = * = = } . ; $ 1 4 } ! ; 2 0 = = = * 8 @ $ ^ | _ - $ 9 9 d c a : % - , - 4 ) ^ $ { 2 / 7 e ' _ 6 4 @ % ) @ @ 2 } ( } } 2 ; # , ",
"| _ @ ; ' $ d 9 $ ' ' _ } * 0 * = * * * 0 / { # { ~ / @ > . } = = = 6 ! ' @ / } } / + # 9 c c a $ - ; , { . - $ # % 2 % ;+, # 3 ( _ @ / ( 7 : 7 2 /   2 ] , $ , ",
"  } 2 7 { ; ' > - 1 ^ ) } } } } * * * = * 4 1 7 | @ + 1 > _ * = = } % > : / = = }   + 1 ^ j a 9 9 , , , ' # $ $ - _ ! : , , ; . ) @ ; % 2 ! ; - | ! @ { e 9 > > ",
"/ } ( 2 + 5 > [ - - ; 2 } } } * * * * = } ) + 4 4 ! { 1 { % ( } 4 . { $ - 4 0 & 3 - ' - _ @ > a c c b 9 [ ' ' ' : : ' ; ; $ > ^ # ' , 1 3 . _ 2 2 ) ~ x ' $ ' # ",
"    & }   @ $ , ; ^ # . 0 * * * = * * * 8 ! | 4 4 @ $ ; @ 1 ] @ { ' $ $ - . ) + ^ ' ' - . + { > b c c c d ' ' [ e ' ~ 4 4 ! ' 9 a , : _ 6 & } * } ( 3 ~ 7 1 # : ",
"4   & = ( % ' e ; - { 3 } * * * = = = & % ^ ' 7 _ 1 ^ 1 | ; , , , $ # # ; { { { @ % _ . ) 2 ) % : $ , c b 9 d $ ] 3 & * ( + ' b c [ ; + / 6 ( ( / _ ! . / 2 7 - "};
