/* XPM */
static char * mouse_hole_80_green_glow_bkg_xpm[] = {
"80 80 61 1",
" 	c #110F0F",
".	c #0F0D0D",
"+	c #0D0B0B",
"@	c #0B0909",
"#	c #070606",
"$	c #050404",
"%	c #0E0C0C",
"&	c #141212",
"*	c #161313",
"=	c #171414",
"-	c #0A0808",
";	c #080606",
">	c #060404",
",	c #040303",
"'	c #060505",
")	c #100E0E",
"!	c #0C0A0A",
"~	c #0E0B0B",
"{	c #090707",
"]	c #0A0707",
"^	c #080707",
"/	c #120F0F",
"(	c #141111",
"_	c #0F0C0C",
":	c #070505",
"<	c #161414",
"[	c #050303",
"}	c #151212",
"|	c #0D0A0A",
"1	c #0B0808",
"2	c #110E0E",
"3	c #100D0D",
"4	c #131010",
"5	c #090808",
"6	c #131111",
"7	c #0C0909",
"8	c #121010",
"9	c #030202",
"0	c #151313",
"a	c #020202",
"b	c #020101",
"c	c #010101",
"d	c #030303",
"e	c #040404",
"f	c #0D0C0C",
"g	c #050505",
"h	c #010000",
"i	c #090606",
"j	c #040202",
"k	c #0A0909",
"l	c #151414",
"m	c #0B0A0A",
"n	c #81F40B",
"o	c #274D28",
"p	c #100F0F",
"q	c #0C0B0B",
"r	c #314023",
"s	c #324124",
"t	c #0F0E0E",
"u	c #060606",
"v	c #131212",
" .+@#$$#%&**====&.-;>,,,$''$,'-+.)!-~%-{@-{]{@^#$$!/((_{$::':';/====*==<**=====<",
"{#'''[#%(==****}/|1%_#$,{%.!'{./2_@-.2)3/4/3-,#|5$:{@@;$,'>,,,;4==**}}***=======",
"$$$:'$!4*=*}6/.~7^-8}_^$!4}4!{+!{7%3(======(+$@2%#$[,,$[,$$,,9>/*0&/ 4}*========",
"7-^#$#2*==}(4_@;::7(*(~#+(=*)^'$:3}*<==<*==*3#+6/7',,$;^>,9abc9@3~@@!.4}========",
"68)!>;/*<=***( |#$-(=}+{2*==8-$:_}====*<}}=*/{!6}.;,$@).{,bcccc9,,d$;!)6**======",
"=**/{;2*==**===(@$^4*}%14*==}+>{8*===*}<*}*=8-^3& ;$; }6{acb999bcb9,:{!36}***==*",
"===*3^%(==0*===(!,: =*37/*===3'-8**=====**0})>e] /-$-/4|,ca,,,,9cb,#^#^1+3/8 /4/",
"====4@12*=**=*}8{,$-_)+-3(}*=):+(***=====0&2{#{;{~;,$#'acb,,'#$,9$! .@-{';{{{{{^",
"==**}4+!/****}2{,$[,,$$,#7346%;.}*=}}}*}( !-~).@,99bbbcccb,$;{$,>f*=(//~:,,,:{{:",
"=*}66}2;~(68.|-$;%__.!:,$'{-{',{!++|!!|~%+@+2)7;9cccbccccb[$$[,':.=*&(}}%'$[@2/%",
"=*83_3|'';;^'$$#3}*()@1-;^-'bbcbd,,,,:-+)3|1@;,9aba,,,,acb;7#[,[g~(*0}*=(|#$|(*(",
"}(3!{:$9abbd,,;%(*0);$% 1>:$bhcai~|^$7 4 +;;-;$$,,#++7{[cb:-:daa$!/=*&**}3^>~(<*",
"()+-',9bba,e,j;!32.->,!3{$$$[acb;2}2-7.|--@@@^--$:.((8)5ab,$9bccd#_}*}*=*%:'%4*=",
"2+-{''$,'#:g,#1#'#>'{''#$:-!|5,a,7}}%'',;3)!^'-{'+(****2>9d,,9bcb,;+_/443^,[@/&*",
"%1-!k{-~))+^$@2-$$'!3{'${%/(()^'##+ %'$^%42{'#!-{ *=*}=*+,9d'^$,99d,$-!@:ab9^.4}",
"@{_8|-3}**}%>@4+>>{_){'-2}<=0/-72+;-@'[1_+->$;-^12*}***02'99-2|5>9ba9j,9abba'!)6",
";-4<_{2*===(!{ %'$:@-',1(===l*%|(/{$>,a':'$$''>>|(*<=*0=}+9ak67:,bcbcbaccb99#+_ ",
"%4*0_{.(*==03;!@>,,$,,$m(=*=<}~~&}.nnnnnnnn{3_1:~&=*==**=8'c,{$bccd:$bcccd$>-_3_",
"4=}2@^@)}===(_^>,$[,$,$-/**==&+-/nnoooooooonnn3{%0=***}**.,c9,daad,--$cca,1+^-~!",
"}*8@:''-2&}( 7$a[^5--#$$!4*=*p;nnooooooooooooonn.*<***0=}!,d$'>,#^e99,9d,,@.:$:'",
"4/!:$''$;!!@^[d9:7%/6)@>#!/43nnooooooooooooooooon***=***3{':%){$@+^,a9,[$,:-$$'#",
"~7>$'-@;[,,,$>'$[${)&( !;:7!nooooonnooooooooooooon*==*} :,^q4 ;>+/~,aba:@>$$$#-+",
"'>>#%44_;,':;k^:-|~%..3_7',noooonnnooooooooooooooon=*(/!d,!88|:'-24;9ca#q#'>']3(",
",,;+(==}_'$#@|-@4*06/%-''$noooonjnooooooooooooooooon62~#,$3/|;$$'q/@,9ca>$$:'- (",
"a,!4*===/#,']-~/*=**<&3',noooonrnooooooooooooooooooon|_{'#%@'$$$$#@;,9cb9,[;|%2/",
"b$2*==*=6{$';i }*=**=}/{noooonrrnoooooooooooooooooooon-:'';''{@!->,,,da999d#2(/%",
"9:4=0===(@'$>{(=******(7nooonrrnoooooooooooooooooooooona,[${+2843{$,,da99bcag@-:",
"c,)=*=**6@#$d:2}*****04nooonrrnoooooooooooooooooooooooon9,$;%/82~:$,,$,aa99999j,",
"cd@(<0*=4-:,a9{2**0***nooonrrrnoooooooooooooooooooooooon9$'$:{{;'[$,$@^d:!1>$,,,",
"b,-/=}*=/:,9bc9]4}}6/noooonrrnoooooooooooooooooooooooooon@%{,,>$'^;>'|{'%(/+;$$,",
"b,-)}==}|,9bccc9^+|-#nooonrrrnooooooooooooooooooooooooooon&2^,::-.@''7:;)}}()-$$",
"::#+(<4%#9cba,,abaaanooonrrrnoooooooooooooooooooooooooooon=}~,$#~/-$$^,; }}<*_>,",
"!@$^.3-$9a9$|/.;bcacnooonrrrnooooooooooooooooooooooooooooon=2$$:+3{[$d9$78}*(2;,",
"#{e>#,ab9,#_}=</;a9nooonrrrnoooooooooooooooooooooooooooooon=4#$'@7>,9ccb[-%3.7$9",
",$,9bcba9>~(=***%,,nooonrrrnooooooooooooooooooooooooooooooon/;'$''>,bccca$>[$,bc",
";9bbcc,$$-/*=}(})'nooonsssnoooooooooooooooooooooooooooooooon-'$,[:$j,$,9,9bbaacc",
"+,b9['!@#)<*0*0} ;nooonsssnooooooooooooooooooooooooooooooooon99999[@f2_@',cb9999",
";,,#{-2!;/==**&}3^noonssssnoooooooooooooooooooooooooooooooooncbccc$3}0*4{9cbad,,",
"-k!!'^~--4<*<<}}.nooonsssnoooooooooooooooooooooooooooooooooonbbbc,'@3864!,cca;--",
"3}()#'{{.**}*}}}.nooonsssnooooooooooooooooooooooooooooooooooonb9#~.@;{!@;,bc,@~%",
"}=*6@,d'.**&*=*(@noonssssnooooooooooooooooooooooooooooooooooond;2}}2{;;$$dbc9'^-",
"<=(t;bb' =&(*}4.nooonsssnoooooooooooooooooooooooooooooooooooon@%(*=0 .%;,9ccb$#-",
"=0){dcc,!}}}08%-nooonsssnooooooooooooooooooooooooooooooooooooon/*}}**}(|,9cb,'-~",
"2+^>dccc$2=*/!--noonssssnooooooooooooooooooooooooooooooooooooon)}}&****_dbc9,[#-",
";#--ecccb^ );#1nooonssssnooooooooooooooooooooooooooooooooooooon@/&}***}@bhau:>[;",
"+2( ^,9bcb$;${3nooonssssnooooooooooooooooooooooooooooooooooooon'!._)2)!$ba:2 !;{",
"**}3:>'$9cb:-- nooonsssnooooooooooooooooooooooooooooooooooooooon'$d$'''>,,{(*4~:",
"}/|##~2.{9c,$'+noonssssnooooooooooooooooooooooooooooooooooooooon{$,,[${{$,#3/2!e",
".@$$+}*6@,9bc9nooonssssnooooooooooooooooooooooooooooooooooooooon43#d$::;$,$#^{',",
":'$-8()%;,,9cbnooonssssnooooooooooooooooooooooooooooooooooooooon2_{99,$',,,,>^15",
"$,'|4%{'$';;,9nooonssssnooooooooooooooooooooooooooooooooooooooon{;,b9,$>,,,$#-.2",
"+:,#-#$${./2^anooonssssnoooooooooooooooooooooooooooooooooooooooon$9b9#--,,$$'{~3",
"(+$,,';-2*=v#bnoonssssnooooooooooooooooooooooooooooooooooooooooon{ab,7.@$^1:#!_+",
"=2:,'|340=*/$cnoonssssnooooooooooooooooooooooooooooooooooooooooon#a9:+!{@2)--_~;",
"=)'$+6}=**(!9cnoonssssnooooooooooooooooooooooooooooooooooooooooon9b9#-:!4})--!;,",
"3|;~&*}*}(~$9nooonssssnooooooooooooooooooooooooooooooooooooooooon9a9,${ ((%#'',,",
"$'+&*===4+'dbnooonssssnooooooooooooooooooooooooooooooooooooooooon,9b9,7/_|#$,,,9",
"b,-)6}*(7,aaenooonssssnooooooooooooooooooooooooooooooooooooooooon,99,,:-'$$$>$9b",
"b9,>{__-$bca@nooonssssnooooooooooooooooooooooooooooooooooooooooon,,,,,,[,,:@],bb",
"d$'gj,9bccc9{nooonssssnoooooooooooooooooooooooooooooooooooooooooon,9a99dd,^!;9ac",
",'7!#9bcca,,,nooonssnnooooooooooooooooooooooooooooooooooooooooooonabccccb9[$,9bc",
",;-;-||@;9,$9nooonnnooooooooooooooooooooooooooooooooooooooooooooon,'$bcccb9,d$99",
"d$>'.}nnnnnnnnoooooooooonnnnnnnnnnnnnnnnnnnnnnnnnnnnnnnnnnnnnnooon!42:$,999,,:>$",
",'7.4nooooooooooooooonnn%2%:,,,#-:aca$$$,$_}/7$:%/4@,cc$_(3#dnooon *4k{;,9ba,$$-",
",{)}*nooooooooooooonn#-/**v{9,^||i9c9$$,,$.=(3;,g{-,ccc$f_^,9nooon6*2{;'$9cc9,$+",
"'~6***nooooooooonnn,:!3}==4'c9@%@:,$'$,,,,-6(3^d,$,9bcc9'#,9aannn44/7'$$#,cb9$'!",
"{4<*}&}nnnnnnnnn1$9e7 }=}879c9';','+2-$,[,$k%@#9,$[,,bc9{+-,cb,;.pf-'$'!~#9d'-{-",
"-(===0(%-30=*/!~;ab$%6&/%{9cc9,,,,#3*4!:$,,$'$,bb9d$'9cb$#$9cb[${-',,:!/.;,,$]-;",
"^%2(}4%^!(**6|#^gab,@+]'dbcc9{7-::#+&=()-'$,,9acccbd,9acb999dd'$,>'$,^77{$,,$$>$",
",'^@!-:76==(!$bba9a,;#9bcbd>{8}(2)!@ *=<2~{,9ccb9acc,$,99d9bba,,99,99'{!!@-;,$,d",
"b[;',,#3}}(!,cca,:',,,99,:''_*==<}.-!}==}}3$accd;,cb9$#'$$,bccbbccbb9@/}4/ +$,$$",
"b${;'>:@+@'99$#~283{';@{-)!{ }**0=}.-+ 864!,ccca:$a9,#_!:$$,abd,9,,d#/*=}}}4!$>'",
"a,+/!:,,abcb#26<==* :#%!!4 !)(**}** {':-{',ad$9,,,,,$@4_'[;@-$d${+^$;_(}(}**3>':",
"9$!)~:9bcc9'3}*==*=})7^$7(&%~6*=0**4@,$;{g99$#,e'1#,;24+>'!3!$g@34-{-13(&&}* {#'",
"';;^#,bcb9$!}**==*==}.;$14}!;20===*8@$^|_-$99dca:%-,-4)^${2/7e'_64@%)@@2}(}}2;#,",
"|_@;'$d9$''_}*0*=***0/{#{~/@>.}===6!'@/}}/+#9cca$-;,{.-$#%2%u,#3(_@/(7:72/ 2],$,",
" }27{;'>-1^)}}}}***=*417|@+1>_*==}%>:/==} +1^ja99,,,'#$$-_!:,,;.)@;%2!;-|!@{e9>>",
"/}(2+5>[--;2}}}****=})+44!{1{%(}4.{$-40&3-'-_@>accb9['''::';;$>^#',13._22)~k'$'#",
"  &} @$,;^#.0***=***8!|44@$;@1]@{'$$-.)+^''-.+{>bcccd''[e'~44!'9a,:_6&}*}(3~71#:",
"4 &=(%'e;-{3}***===&%^'7_1^1|;,,,$##;{{{@%_.)2)%:$,cb9d$]3&*(+'bc[;+/6((/_!./27-"};
