/* XPM */
static char * floor_dark_doted_xpm[] = {
"80 80 58 1",
" 	c #110F0F",
".	c #0F0D0D",
"+	c #0D0B0B",
"@	c #0B0909",
"#	c #070606",
"$	c #050404",
"%	c #0E0C0C",
"&	c #141212",
"*	c #161313",
"=	c #171414",
"-	c #0A0808",
";	c #080606",
">	c #060404",
",	c #040303",
"'	c #060505",
")	c #100E0E",
"!	c #0C0A0A",
"~	c #0E0B0B",
"{	c #090707",
"]	c #0A0707",
"^	c #080707",
"/	c #120F0F",
"(	c #141111",
"_	c #0F0C0C",
":	c #070505",
"<	c #161414",
"[	c #050303",
"}	c #151212",
"|	c #0D0A0A",
"1	c #0B0808",
"2	c #110E0E",
"3	c #100D0D",
"4	c #131010",
"5	c #090808",
"6	c #131111",
"7	c #0C0909",
"8	c #121010",
"9	c #030202",
"0	c #151313",
"a	c #020202",
"b	c #020101",
"c	c #010101",
"d	c #030303",
"e	c #040404",
"f	c #0D0C0C",
"g	c #050505",
"h	c #010000",
"i	c #090606",
"j	c #040202",
"k	c #0A0909",
"l	c #151414",
"m	c #0B0A0A",
"n	c #100F0F",
"o	c #0C0B0B",
"p	c #060606",
"q	c #0F0E0E",
"r	c #131212",
"s	c #0E0D0D",
" .+@#$$#%&**====&.-;>,,,$''$,'-+.)!-~%-{@-{]{@^#$$!/((_{$::':';/====*==<**=====<",
"{#'''[#%(==****}/|1%_#$,{%.!'{./2_@-.2)3/4/3-,#|5$:{@@;$,'>,,,;4==**}}***=======",
"$$$:'$!4*=*}6/.~7^-8}_^$!4}4!{+!{7%3(======(+$@2%#$[,,$[,$$,,9>/*0&/ 4}*========",
"7-^#$#2*==}(4_@;::7(*(~#+(=*)^'$:3}*<==<*==*3#+6/7',,$;^>,9abc9@3~@@!.4}========",
"68)!>;/*<=***( |#$-(=}+{2*==8-$:_}====*<}}=*/{!6}.;,$@).{,bcccc9,,d$;!)6**======",
"=**/{;2*==**===(@$^4*}%14*==}+>{8*===*}<*}*=8-^3& ;$; }6{acb999bcb9,:{!36}***==*",
"===*3^%(==0*===(!,: =*37/*===3'-8**=====**0})>e] /-$-/4|,ca,,,,9cb,#^#^1+3/8 /4/",
"====4@12*=**=*}8{,$-_)+-3(}*=):+(***=====0&2{#{;{~;,$#'acb,,'#$,9$! .@-{';{{{{{^",
"==**}4+!/****}2{,$[,,$$,#7346%;.}*=}}}*}( !-~).@,99bbbcccb,$;{$,>f*=(//~:,,,:{{:",
"=*}66}2;~(68.|-$;%__.!:,$'{-{',{!++|!!|~%+@+2)7;9cccbccccb[$$[,':.=*&(}}%'$[@2/%",
"=*83_3|'';;^'$$#3}*()@1-;^-'bbcbd,,,,:-+)3|1@;,9aba,,,,acb;7#[,[g~(*0}*=(|#$|(*(",
"}(3!{:$9abbd,,;%(*0);$% 1>:$bhcai~|^$7 4 +;;-;$$,,#++7{[cb:-:daa$!/=*&**}3^>~(<*",
"()+-',9bba,e,j;!32.->,!3{$$$[acb;2}2-7.|--@@@^--$:.((8)5ab,$9bccd#_}*}*=*%:'%4*=",
"2+-{''$,'#:g,#1#'#>'{''#$:-!|5,a,7}}%'',;3)!^'-{'+(****2>9d,,9bcb,;+_/443^,[@/&*",
"%1-!k{-~))+^$@2-$$'!3{'${%/(()^'##+ %'$^%42{'#!-{ *=*}=*+,9d'^$,99d,$-!@:ab9^.4}",
"@{_8|-3}**}%>@4+>>{_){'-2}<=0/-72+;-@'[1_+->$;-^12*}***02'99-2|5>9ba9j,9abba'!)6",
";-4<_{2*===(!{ %'$:@-',1(===l*%|(/{$>,a':'$$''>>|(*<=*0=}+9ak67:,bcbcbaccb99#+_ ",
"%4*0_{.(*==03;!@>,,$,,$m(=*=<}~~&}.;,9b${@^{3_1:~&=*==**=8'c,{$bccd:$bcccd$>-_3_",
"4=}2@^@)}===(_^>,$[,$,$-/**==&+-/*){'$[~((_|((3{%0=***}**.,c9,daad,--$cca,1+^-~!",
"}*8@:''-2&}( 7$a[^5--#$$!4*=*n;'_/!:-{{/==/%4}3{.*<***0=}!,d$'>,#^e99,9d,,@.:$:'",
"4/!:$''$;!!@^[d9:7%/6)@>#!/43-{;{@##]:;2*=4%/&%^3***=***3{':%){$@+^,a9,[$,:-$$'#",
"~7>$'-@;[,,,$>'$[${)&( !;:7![:+@,aa99,:%}=4~~.-'+(*==*} :,^o4 ;>+/~,aba:@>$$$#-+",
"'>>#%44_;,':;k^:-|~%..3_7',,b9;'9bcc9,'@/}8@#^-'^2}=*(/!d,!88|:'-24;9ca#o#'>']3(",
",,;+(==}_'$#@|-@4*06/%-''$ccbc9[j$[d>:$,#_+:$#+@;!4&62~#,$3/|;$$'o/@,9ca>$$:'- (",
"a,!4*===/#,']-~/*=**<&3',,99,,[${_%-:''$9,$$$:3/-;o!1|_{'#%@'$$$$#@;,9cb9,[;|%2/",
"b$2*==*=6{$';i }*=**=}/{$'',>>#7 **3#$,,,ab99,72#9,,[{-:'';''{@!->,,,da999d#2(/%",
"9:4=0===(@'$>{(=******(7$$,9,,'+}*&~#'''#$ccca,$bccccbaa,[${+2843{$,,da99bcag@-:",
"c,)=*=**6@#$d:2}*****04-,9bcb,#.**2-$$;{{:9chhc9>-1:,9bb9,$;%/82~:$,,$,aa99999j,",
"cd@(<0*=4-:,a9{2**0***2;d9bcb,p+(6+:$;^:#:$bcb9{/*}27'9b9$'$:{{;'[$,$@^d:!1>$,,,",
"b,-/=}*=/:,9bc9]4}}6/|;9bbccba9$--'$':#-f-,a$;$- }()@$9b,@%{,,>$'^;>'|{'%(/+;$$,",
"b,-)}==}|,9bccc9^+|-#,$,,''$$9acb9$';!38 ^d' _$>|_!{',9a-6&2^,::-.@''7:;)}}()-$$",
"::#+(<4%#9cba,,abaaaad'^~)  21dbca';!28)],d@}3',;#$$,9b9%*=}~,$#~/-$$^,; }}<*_>,",
"!@$^.3-$9a9$|/.;bcacb9$|(}*=*2:,aa,[;+!#e,$k43',$$$$999j@(*=2$$:+3{[$d9$78}*(2;,",
"#{e>#,ab9,#_}=</;a999,{8}****4-$$'acj:{]-@{^+@'''{^,b$',#_(=4#$'@7>,9ccb[-%3.7$9",
",$,9bcba9>~(=***%,,,,,+}=}}}*(@$-7db$7+;-/_',9d:#^:$91@>$^)}/;'$''>,bccca$>[$,bc",
";9bbcc,$$-/*=}(})'$g,,%*==}**4{:%q$b>-#$!}(;bcb9,e,$,|^,99$--'$,[:$j,$,9,9bbaacc",
"+,b9['!@#)<*0*0} ;>$e,~}*<***.'{)~,b$>,'.4~$9,[g{-'9,:,accccb99999[@f2_@',cb9999",
";,,#{-2!;/==**&}3^',,,!}=**}4-$;+^9bd,,#%!'9d,^+23'bcb9$:>9cccbccc$3}0*4{9cbad,,",
"-k!!'^~--4<*<<}}.;#$99;(=06 !'$$$,bc9,,$:[$['@.22-,bc'!)(4-9bbbbc,'@3864!,cca;--",
"3}()#'{{.**}*}}}.$:;dc$_}63@>';$accc9d,d99,'|(/|#,9a>8}}=(!$9ab9#~.@;{!@;,bc,@~%",
"}=*6@,d'.**&*=*(@$:>bcb'@!^$,$$ccbbba9achc9;3){$,9a,@6**(){$>:d;2}}2{;;$$dbc9'^-",
"<=(q;bb' =&(*}4.{$>#dbbb9$>$,9ab,'@++#9chbd'#'$,9b9,#%&&~{;$@.@%(*=0 .%;,9ccb$#-",
"=0){dcc,!}}}08%-{^-~;$,9a9,dacb'!2}*(+eaca,,[$$,9a$#[:!%'>;:.4./*}}**}(|,9cb,'-~",
"2+^>dccc$2=*/!--34(2#,^!7@^$da'_6}**}3'ac9,>@!-$9,@_-$>-:$'-84~)}}&****_dbc9,[#-",
";#--ecccb^ );#13}=*.''~(0}_'b9!(}((}*/;99,$!44!,9'_/)-$^',$!(4k@/&}***}@bhap:>[;",
"+2( ^,9bcb$;${3(=}27{+ }**3'c,3}&(((*/>,,,-8/@',,,^!+-:'$>-!3_:'!._)2)!$ba:2 !;{",
"**}3:>'$9cb:-- (&2{-3(}*}/@,c[)}}*0*}!jd[,+6+,['>,[$[,:;,^.@@;,$'$d$'''>,,{(*4~:",
"}/|##~2.{9c,$'+%7;;.&}/_!{>9be_}**=}3$ba[,-+',e5;$#@^$-~:;2m''p{{$,,[${{$,#3/2!e",
".@$$+}*6@,9bc9$',,@8(4_;,,,,,$%}*0&3#cccba9,$$e:;{.4 1%4!']'#!3/43#d$::;$,$#^{',",
":'$-8()%;,,9cb,$,$@_7-#$$$,,,,|(} @$b9accb$-@@e,'%&**/_2-bc,#@~32_{99,$',,,,>^15",
"$,'|4%{'$';;,9,$$,'#$,'-!-$9ca$;#$bhcd9cc9%&(/-d>~40}.:$9cb,>$['{;,b9,$>,,,$#-.2",
"+:,#-#$${./2^a9,$$$[,'|/42{dchcccbcccbccb,.}*(o:,'{75,bbbc9,{@--{$9b9#--,,$$'{~3",
"(+$,,';-2*=r#bb9${{>$-/*<}!,cccd'-!{,cca${@+3+#;$,d9bcb,ac9,#+24/{ab,7.@$^1:#!_+",
"=2:,'|340=*/$cca5//@'+&=*}!9b9#_6}<(7d9,{+{$'$,;',d999$,bb,,,#+(8#a9:+!{@2)--_~;",
"=)'$+6}=**(!9cbj!(*_'-/*4.;9c[%}=*8_:,,[,:',,,,,aa9d,:-,c9;-',>-;9b9#-:!4})--!;,",
"3|;~&*}*}(~$9bdd'|/_''7.!#[9,|(}*(~'dd'$,>$,,,,9c9$$$''9c,{@$99999a9,${ ((%#'',,",
"$'+&*===4+'db9d,,,;{'$':$9b$_}**&s:a9>{'$^;$,,9cb>@{$,,,9d99ccb99,9b9,7/_|#$,,,9",
"b,-)6}*(7,aae!%!$abad,,9acb^(*8_!;da,{|:$#:,,accd'#$,,,#$d,,cc,>$,99,,:-'$$$>$9b",
"b9,>{__-$bca@} -,cccbd,dbb,{26%',d9,'-@'>>,,9ccb$;:$,,,$,,,,99'#',,,,,,[,,:@],bb",
"d$'gj,9bccc9{@'9cc9,d,,,9>{::5',,$,[$'$';,9ab99:~)1',,,9b9,$>':-{$,9a99dd,^!;9ac",
",'7!#9bcca,,,9acca>{#$,>$$',b9$^-#,9a99,,bcc$!;@(*6%#,9aa,$'{{'-:,abccccb9[$,9bc",
",;-;-||@;9,$9bba9k)2~',$$,,,a9^o~-,bccbcccca^!:7(**6!,99,:!3.;$#d,,'$bcccb9,d$99",
"d$>'.}**4-,dbc9,; *(!$,,>#:j99$^5>bccb9999$5{#,@60}/!9b9#36){$-',^!42:$,999,,:>$",
",'7.4}*=0|,,$;:,; } >,${%2%:,,,#-:aca$$$,$_}/7$:%/4@,cc$_(3#d$:[^+ *4k{;,9ba,$$-",
",{)}*}}**~,'_2-$;.8-$#-/**r{9,^||i9c9$$,,$.=(3;,g{-,ccc$f_^,9,,:%)6*2{;'$9cc9,$+",
"'~6***(}6-'.}(7;{{^,:!3}==4'c9@%@:,$'$,,,,-6(3^d,$,9bcc9'#,9aa,5244/7'$$#,cb9$'!",
"{4<*}&}4~-.&=(+!1$9e7 }=}879c9';','+2-$,[,$k%@#9,$[,,bc9{+-,cb,;.nf-'$'!~#9d'-{-",
"-(===0(%-30=*/!~;ab$%6&/%{9cc9,,,,#3*4!:$,,$'$,bb9d$'9cb$#$9cb[${-',,:!/.;,,$]-;",
"^%2(}4%^!(**6|#^gab,@+]'dbcc9{7-::#+&=()-'$,,9acccbd,9acb999dd'$,>'$,^77{$,,$$>$",
",'^@!-:76==(!$bba9a,;#9bcbd>{8}(2)!@ *=<2~{,9ccb9acc,$,99d9bba,,99,99'{!!@-;,$,d",
"b[;',,#3}}(!,cca,:',,,99,:''_*==<}.-!}==}}3$accd;,cb9$#'$$,bccbbccbb9@/}4/ +$,$$",
"b${;'>:@+@'99$#~283{';@{-)!{ }**0=}.-+ 864!,ccca:$a9,#_!:$$,abd,9,,d#/*=}}}4!$>'",
"a,+/!:,,abcb#26<==* :#%!!4 !)(**}** {':-{',ad$9,,,,,$@4_'[;@-$d${+^$;_(}(}**3>':",
"9$!)~:9bcc9'3}*==*=})7^$7(&%~6*=0**4@,$;{g99$#,e'1#,;24+>'!3!$g@34-{-13(&&}* {#'",
"';;^#,bcb9$!}**==*==}.;$14}!;20===*8@$^|_-$99dca:%-,-4)^${2/7e'_64@%)@@2}(}}2;#,",
"|_@;'$d9$''_}*0*=***0/{#{~/@>.}===6!'@/}}/+#9cca$-;,{.-$#%2%p,#3(_@/(7:72/ 2],$,",
" }27{;'>-1^)}}}}***=*417|@+1>_*==}%>:/==} +1^ja99,,,'#$$-_!:,,;.)@;%2!;-|!@{e9>>",
"/}(2+5>[--;2}}}****=})+44!{1{%(}4.{$-40&3-'-_@>accb9['''::';;$>^#',13._22)~k'$'#",
"  &} @$,;^#.0***=***8!|44@$;@1]@{'$$-.)+^''-.+{>bcccd''[e'~44!'9a,:_6&}*}(3~71#:",
"4 &=(%'e;-{3}***===&%^'7_1^1|;,,,$##;{{{@%_.)2)%:$,cb9d$]3&*(+'bc[;+/6((/_!./27-"};
