/* XPM */
static char * floor_orange_bkg_xpm[] = {
"80 80 59 1",
" 	c #110F0F",
".	c #0F0D0D",
"+	c #0D0B0B",
"@	c #0B0909",
"#	c #070606",
"$	c #050404",
"%	c #0E0C0C",
"&	c #141212",
"*	c #161313",
"=	c #171414",
"-	c #0A0808",
";	c #080606",
">	c #060404",
",	c #040303",
"'	c #060505",
")	c #100E0E",
"!	c #0C0A0A",
"~	c #0E0B0B",
"{	c #090707",
"]	c #0A0707",
"^	c #080707",
"/	c #120F0F",
"(	c #141111",
"_	c #0F0C0C",
":	c #070505",
"<	c #161414",
"[	c #050303",
"}	c #151212",
"|	c #0D0A0A",
"1	c #0B0808",
"2	c #110E0E",
"3	c #100D0D",
"4	c #131010",
"5	c #090808",
"6	c #D4690A",
"7	c #0C0909",
"8	c #131111",
"9	c #121010",
"0	c #020202",
"a	c #010101",
"b	c #020101",
"c	c #030202",
"d	c #151313",
"e	c #040404",
"f	c #0D0C0C",
"g	c #030303",
"h	c #050505",
"i	c #010000",
"j	c #090606",
"k	c #040202",
"l	c #151414",
"m	c #0A0909",
"n	c #0B0A0A",
"o	c #100F0F",
"p	c #0C0B0B",
"q	c #060606",
"r	c #0F0E0E",
"s	c #131212",
"t	c #0E0D0D",
" .+@#$$#%&**====&.-;>,,,$''$,'-+.)!-~%-{@-{]{@^#$$!/((_{$::':';/====*==<**=====<",
"{#'''[#%(==****}/|1%_#$,{%.!'{./2_@-.2)3/4/3-,#|5$:{@@;$,'>,,,;4==**}}***=======",
"$$$:'$!4*=*}6666666666666666666666666666666666666666666666666666666664}*========",
"7-^====6666666666666666666666666666666666666666666666666666666666666666666======",
"89)==666<=**666666666666666666666666666666666666666666666666666666666!)8*66=====",
"=*==662*==**===(@$^4*}%14*==}+>{9*===*}<*}*=9-^3& ;$; }8{0abcccbabc,:{!38}66===*",
"====6^%(==d*===(!,: =*37/*===3'-9**=====**d})>e] /-$-/4|,a0,,,,cab,#^#^1+3/66/4/",
"===66@12*=**=*}9{,$-_)+-3(}*=):+(***=====d&2{#{;{~;,$#'0ab,,'#$,c$! .@-{';{{6{{^",
"==*6}4+!/****}2{,$[,,$$,#7348%;.}*=}}}*}( !-~).@,ccbbbaaab,$;{$,>f*=(//~:,,,6{{:",
"=*}68}2;~(89.|-$;%__.!:,$'{-{',{!++|!!|~%+@+2)7;caaabaaaab[$$[,':.=*&(}}%'$[62/%",
"=*96_3|'';;^'$$#3}*()@1-;^-'bbabg,,,,:-+)3|1@;,c0b0,,,,0ab;7#[,[h~(*d}*=(|#$6(*(",
"}(36{:$c0bbg,,;%(*d);$% 1>:$bia0j~|^$7 4 +;;-;$$,,#++7{[ab:-:g00$!/=*&**}3^>6(<*",
"()666,cbb0,e,k;!32.->,!3{$$$[0ab;2}2-7.|--@@@^--$:.((9)50b,$cbaag#_}*}*=*%:'64*=",
"2+666'$,'#:h,#1#'#>'{''#$:-!|5,0,7}}%'',;3)!^'-{'+(****2>cg,,cbab,;+_/443^,666&*",
"%1666{-~))+^$@2-$$'!3{'${%/(()^'##+ %'$^%42{'#!-{ *=*}=*+,cg'^$,ccg,$-!@:0b6664}",
"@{666-3}**}%>@4+>>{_){'-2}<=d/-72+;-@'[1_+->$;-^12*}***d2'cc-2|5>cb0ck,c0bb666)8",
";-666{2*===(!{ %'$:@-',1(===l*%|(/{$>,0':'$$''>>|(*<=*d=}+c0m87:,babab0aabc666_ ",
"%4666{.(*==d3;!@>,,$,,$n(=*=<}~~&}.;,cb${@^{3_1:~&=*==**=9'a,{$baag:$baaag$6663_",
"4=666^@)}===(_^>,$[,$,$-/**==&+-/*){'$[~((_|((3{%d=***}**.,ac,g00g,--$aa0,1666~!",
"}*666''-2&}( 7$0[^5--#$$!4*=*o;'_/!:-{{/==/%4}3{.*<***d=}!,g$'>,#^ecc,cg,,@666:'",
"4/666''$;!!@^[gc:7%/8)@>#!/43-{;{@##]:;2*=4%/&%^3***=***3{':%){$@+^,0c,[$,:666'#",
"~7666-@;[,,,$>'$[${)&( !;:7![:+@,00cc,:%}=4~~.-'+(*==*} :,^p4 ;>+/~,0b0:@>$666-+",
"'>66644_;,':;m^:-|~%..3_7',,bc;'cbaac,'@/}9@#^-'^2}=*(/!g,!99|:'-24;ca0#p#'6663(",
",,666==}_'$#@|-@4*d8/%-''$aabac[k$[g>:$,#_+:$#+@;!4&82~#,$3/|;$$'p/@,ca0>$$666 (",
"0,666===/#,']-~/*=**<&3',,cc,,[${_%-:''$c,$$$:3/-;p!1|_{'#%@'$$$$#@;,cabc,[6662/",
"b$666=*=8{$';j }*=**=}/{$'',>>#7 **3#$,,,0bcc,72#c,,[{-:'';''{@!->,,,g0cccg666/%",
"c:666===(@'$>{(=******(7$$,c,,'+}*&~#'''#$aaa0,$baaaab00,[${+2943{$,,g0ccba666-:",
"a,666=**8@#$g:2}*****d4-,cbab,#.**2-$$;{{:caiiac>-1:,cbbc,$;%/92~:$,,$,00cc666k,",
"ag666d*=4-:,0c{2**d***2;gcbab,q+(8+:$;^:#:$babc{/*}27'cbc$'$:{{;'[$,$@^g:!1666,,",
"b,666}*=/:,cbac]4}}8/|;cbbaab0c$--'$':#-f-,0$;$- }()@$cb,@%{,,>$'^;>'|{'%(/666$,",
"b,666==}|,cbaaac^+|-#,$,,''$$c0abc$';!39 ^g' _$>|_!{',c0-8&2^,::-.@''7:;)}}666$$",
"::666<4%#cab0,,0b0000g'^~)  21gba0';!29)],g@}3',;#$$,cbc%*=}~,$#~/-$$^,; }}666>,",
"!@6663-$c0c$|/.;ba0abc$|(}*=*2:,00,[;+!#e,$m43',$$$$ccck@(*=2$$:+3{[$gc$79}666;,",
"#{666,0bc,#_}=</;0ccc,{9}****4-$$'0ak:{]-@{^+@'''{^,b$',#_(=4#$'@7>,caab[-%666$c",
",$666ab0c>~(=***%,,,,,+}=}}}*(@$-7gb$7+;-/_',cg:#^:$c1@>$^)}/;'$''>,baaa0$>666ba",
";c666a,$$-/*=}(})'$h,,%*==}**4{:%r$b>-#$!}(;babc,e,$,|^,cc$--'$,[:$k,$,c,cb666aa",
"+,666'!@#)<*d*d} ;>$e,~}*<***.'{)~,b$>,'.4~$c,[h{-'c,:,0aaaabccccc[@f2_@',a666cc",
";,666-2!;/==**&}3^',,,!}=**}4-$;+^cbg,,#%!'cg,^+23'babc$:>caaabaaa$3}d*4{ca666,,",
"-m666^~--4<*<<}}.;#$cc;(=d8 !'$$$,bac,,$:[$['@.22-,ba'!)(4-cbbbba,'@3984!,a666--",
"3}666'{{.**}*}}}.$:;ga$_}83@>';$0aaacg,gcc,'|(/|#,c0>9}}=(!$c0bc#~.@;{!@;,b666~%",
"}=666,g'.**&*=*(@$:>bab'@!^$,$$aabbb0c0aiac;3){$,c0,@8**(){$>:g;2}}2{;;$$gb666^-",
"<=666bb' =&(*}4.{$>#gbbbc$>$,c0b,'@++#caibg'#'$,cbc,#%&&~{;$@.@%(*=d .%;,ca666#-",
"=d666aa,!}}}d9%-{^-~;$,c0c,g0ab'!2}*(+e0a0,,[$$,c0$#[:!%'>;:.4./*}}**}(|,ca666-~",
"2+666aaa$2=*/!--34(2#,^!7@^$g0'_8}**}3'0ac,>@!-$c,@_-$>-:$'-94~)}}&****_gba666#-",
";#666aaab^ );#13}=*.''~(d}_'bc!(}((}*/;cc,$!44!,c'_/)-$^',$!(4m@/&}***}@bi0666[;",
"+2666,cbab$;${3(=}27{+ }**3'a,3}&(((*/>,,,-9/@',,,^!+-:'$>-!3_:'!._)2)!$b0:666;{",
"**666>'$cab:-- (&2{-3(}*}/@,a[)}}*d*}!kg[,+8+,['>,[$[,:;,^.@@;,$'$g$'''>,,{666~:",
"}/666~2.{ca,$'+%7;;.&}/_!{>cbe_}**=}3$b0[,-+',e5;$#@^$-~:;2n''q{{$,,[${{$,#666!e",
".@666}*8@,cbac$',,@9(4_;,,,,,$%}*d&3#aaab0c,$$e:;{.4 1%4!']'#!3/43#g$::;$,$666',",
":'666()%;,,cab,$,$@_7-#$$$,,,,|(} @$bc0aab$-@@e,'%&**/_2-ba,#@~32_{cc,$',,,66615",
"$,666%{'$';;,c,$$,'#$,'-!-$ca0$;#$biagcaac%&(/-g>~4d}.:$cab,>$['{;,bc,$>,,,666.2",
"+:666#$${./2^0c,$$$[,'|/42{gaiaaabaaabaab,.}*(p:,'{75,bbbac,{@--{$cbc#--,,$666~3",
"(+666';-2*=s#bbc${{>$-/*<}!,aaag'-!{,aa0${@+3+#;$,gcbab,0ac,#+24/{0b,7.@$^1666_+",
"=2666|34d=*/$aa05//@'+&=*}!cbc#_8}<(7gc,{+{$'$,;',gccc$,bb,,,#+(9#0c:+!{@2)666~;",
"=)6668}=**(!cabk!(*_'-/*4.;ca[%}=*9_:,,[,:',,,,,00cg,:-,ac;-',>-;cbc#-:!4})666;,",
"3|666*}*}(~$cbgg'|/_''7.!#[c,|(}*(~'gg'$,>$,,,,cac$$$''ca,{@$ccccc0c,${ ((%666,,",
"$'666===4+'gbcg,,,;{'$':$cb$_}**&t:0c>{'$^;$,,cab>@{$,,,cgccaabcc,cbc,7/_|#666,c",
"b,666}*(7,00e!%!$0b0g,,c0ab^(*9_!;g0,{|:$#:,,0aag'#$,,,#$g,,aa,>$,cc,,:-'$$666cb",
"bc666__-$ba0@} -,aaabg,gbb,{28%',gc,'-@'>>,,caab$;:$,,,$,,,,cc'#',,,,,,[,,:666bb",
"g$666,cbaaac{@'caac,g,,,c>{::5',,$,[$'$';,c0bcc:~)1',,,cbc,$>':-{$,c0ccgg,^6660a",
",'666cbaa0,,,c0aa0>{#$,>$$',bc$^-#,c0cc,,baa$!;@(*8%#,c00,$'{{'-:,0baaaabc[666ba",
",;666||@;c,$cbb0cm)2~',$$,,,0c^p~-,baabaaaa0^!:7(**8!,cc,:!3.;$#g,,'$baaabc666cc",
"g$666}**4-,gbac,; *(!$,,>#:kcc$^5>baabcccc$5{#,@8d}/!cbc#38){$-',^!42:$,ccc666>$",
",'666}*=d|,,$;:,; } >,${%2%:,,,#-:0a0$$$,$_}/7$:%/4@,aa$_(3#g$:[^+ *4m{;,cb666$-",
",{666}}**~,'_2-$;.9-$#-/**s{c,^||jcac$$,,$.=(3;,h{-,aaa$f_^,c,,:%)8*2{;'$ca666$+",
"'~666*(}8-'.}(7;{{^,:!3}==4'ac@%@:,$'$,,,,-8(3^g,$,cbaac'#,c00,5244/7'$$#,a666'!",
"{4666&}4~-.&=(+!1$ce7 }=}97cac';','+2-$,[,$m%@#c,$[,,bac{+-,ab,;.of-'$'!~#c666{-",
"-(=6=d(%-3d=*/!~;0b$%8&/%{caac,,,,#3*4!:$,,$'$,bbcg$'cab$#$cab[${-',,:!/.;,,6]-;",
"^%26}4%^!(**8|#^h0b,@+]'gbaac{7-::#+&=()-'$,,c0aaabg,c0abcccgg'$,>'$,^77{$,,6$>$",
",'^6!-:78==(!$bb0c0,;#cbabg>{9}(2)!@ *=<2~{,caabc0aa,$,ccgcbb0,,cc,cc'{!!@-;6$,g",
"b[;6,,#3}}(!,aa0,:',,,cc,:''_*==<}.-!}==}}3$0aag;,abc$#'$$,baabbaabbc@/}4/ +6,$$",
"b${6'>:@+@'cc$#~293{';@{-)!{ }**d=}.-+ 984!,aaa0:$0c,#_!:$$,0bg,c,,g#/*=}}}46$>'",
"0,+6!:,,0bab#28<==* :#%!!4 !)(**}** {':-{',0g$c,,,,,$@4_'[;@-$g${+^$;_(}(}**6>':",
"c$!66:cbaac'3}*==*=})7^$7(&%~8*=d**4@,$;{hcc$#,e'1#,;24+>'!3!$h@34-{-13(&&}66{#'",
"';;=66babc$!}**==*==}.;$14}!;2d===*9@$^|_-$ccga0:%-,-4)^${2/7e'_84@%)@@2}(66=;#,",
"|_@==66c$''_66666666666666666666666666666666666666666666666666666666(7:7266==,$,",
" }2===66666666666666666666666666666666666666666666666666666666666666666666===c>>",
"/}(2+5>[--;2666666666666666666666666666666666666666666666666666666663._22)~m'$'#",
"  &} @$,;^#.d***=***9!|44@$;@1]@{'$$-.)+^''-.+{>baaag''[e'~44!'c0,:_8&}*}(3~71#:",
"4 &=(%'e;-{3}***===&%^'7_1^1|;,,,$##;{{{@%_.)2)%:$,abcg$]3&*(+'ba[;+/8((/_!./27-"};
